<mxfile host="app.diagrams.net" modified="2024-07-04T13:36:10.312Z" agent="Mozilla/5.0 (Macintosh; Intel Mac OS X 10_15_7) AppleWebKit/537.36 (KHTML, like Gecko) Chrome/126.0.0.0 Safari/537.36" etag="NWJKCEKrzRpPBeM1dW42" version="24.6.4" type="google" pages="5">
  <diagram id="KV8awcX10hJpEU7aNsrB" name="Page-1">
    <mxGraphModel grid="1" page="0" gridSize="10" guides="1" tooltips="1" connect="1" arrows="1" fold="1" pageScale="1" pageWidth="850" pageHeight="1100" math="0" shadow="0">
      <root>
        <mxCell id="0" />
        <mxCell id="1" parent="0" />
        <mxCell id="hND2gdonh0gF4XE7NvKf-42" value="iban-calculator" style="rounded=0;whiteSpace=wrap;html=1;fillColor=#A9C4EB;strokeColor=#7EA6E0;" vertex="1" parent="1">
          <mxGeometry x="248" y="78" width="120" height="60" as="geometry" />
        </mxCell>
        <mxCell id="NTcChNj6e4HEuZE3eQq--15" value="" style="swimlane;startSize=0;strokeColor=#FF3333;fillColor=none;" vertex="1" parent="1">
          <mxGeometry x="150" y="30" width="930" height="680" as="geometry" />
        </mxCell>
        <mxCell id="hND2gdonh0gF4XE7NvKf-45" value="wlp-notservice" style="rounded=0;whiteSpace=wrap;html=1;fillColor=#A9C4EB;strokeColor=#7EA6E0;" vertex="1" parent="NTcChNj6e4HEuZE3eQq--15">
          <mxGeometry x="640" y="600" width="120" height="60" as="geometry" />
        </mxCell>
        <mxCell id="hND2gdonh0gF4XE7NvKf-56" value="connector&lt;div&gt;payment&lt;br&gt;&lt;div&gt;wlp-notservice-data&lt;/div&gt;&lt;/div&gt;" style="shape=cylinder3;whiteSpace=wrap;html=1;boundedLbl=1;backgroundOutline=1;size=15;" vertex="1" parent="NTcChNj6e4HEuZE3eQq--15">
          <mxGeometry x="809" y="574" width="100" height="99" as="geometry" />
        </mxCell>
        <mxCell id="ZFI_mKhUi8gvMjbTQsfc-10" value="PT out of scope cluster" style="text;html=1;align=center;verticalAlign=middle;resizable=0;points=[];autosize=1;strokeColor=#EA6B66;fillColor=none;" vertex="1" parent="NTcChNj6e4HEuZE3eQq--15">
          <mxGeometry x="780" width="150" height="30" as="geometry" />
        </mxCell>
        <mxCell id="hND2gdonh0gF4XE7NvKf-21" value="wlp-gateway" style="rounded=0;whiteSpace=wrap;html=1;fillColor=#A9C4EB;strokeColor=#7EA6E0;" vertex="1" parent="NTcChNj6e4HEuZE3eQq--15">
          <mxGeometry x="540" y="-15" width="120" height="60" as="geometry" />
        </mxCell>
        <mxCell id="LPeYl59csrmdZ0oTzDuq-39" value="" style="endArrow=none;dashed=1;html=1;dashPattern=1 3;strokeWidth=2;rounded=0;" edge="1" parent="NTcChNj6e4HEuZE3eQq--15">
          <mxGeometry width="50" height="50" relative="1" as="geometry">
            <mxPoint x="740" y="330" as="sourcePoint" />
            <mxPoint x="820" y="330" as="targetPoint" />
          </mxGeometry>
        </mxCell>
        <mxCell id="UggaxbtBxv-heRh-20AI-13" value="" style="shape=image;html=1;verticalAlign=top;verticalLabelPosition=bottom;labelBackgroundColor=#ffffff;imageAspect=0;aspect=fixed;image=https://cdn0.iconfinder.com/data/icons/google-material-design-3-0/48/ic_http_48px-128.png;imageBorder=#ff3333;fontSize=18;" vertex="1" parent="NTcChNj6e4HEuZE3eQq--15">
          <mxGeometry x="1" width="51" height="41" as="geometry" />
        </mxCell>
        <mxCell id="UggaxbtBxv-heRh-20AI-14" value="pubsub" style="text;html=1;align=center;verticalAlign=middle;whiteSpace=wrap;rounded=0;" vertex="1" parent="NTcChNj6e4HEuZE3eQq--15">
          <mxGeometry x="850" y="383" width="60" height="30" as="geometry" />
        </mxCell>
        <mxCell id="UggaxbtBxv-heRh-20AI-2" value="" style="aspect=fixed;sketch=0;html=1;dashed=0;whitespace=wrap;verticalLabelPosition=bottom;verticalAlign=top;fillColor=#2875E2;strokeColor=#ffffff;points=[[0.005,0.63,0],[0.1,0.2,0],[0.9,0.2,0],[0.5,0,0],[0.995,0.63,0],[0.72,0.99,0],[0.5,1,0],[0.28,0.99,0]];shape=mxgraph.kubernetes.icon2;kubernetesLabel=1;prIcon=pod" vertex="1" parent="NTcChNj6e4HEuZE3eQq--15">
          <mxGeometry x="75.99999999999997" y="241" width="41.67" height="40" as="geometry" />
        </mxCell>
        <mxCell id="UggaxbtBxv-heRh-20AI-1" value="" style="aspect=fixed;sketch=0;html=1;dashed=0;whitespace=wrap;verticalLabelPosition=bottom;verticalAlign=top;fillColor=#2875E2;strokeColor=#ffffff;points=[[0.005,0.63,0],[0.1,0.2,0],[0.9,0.2,0],[0.5,0,0],[0.995,0.63,0],[0.72,0.99,0],[0.5,1,0],[0.28,0.99,0]];shape=mxgraph.kubernetes.icon2;kubernetesLabel=1;prIcon=pod" vertex="1" parent="NTcChNj6e4HEuZE3eQq--15">
          <mxGeometry x="200" y="82" width="39.67" height="38.08" as="geometry" />
        </mxCell>
        <mxCell id="hND2gdonh0gF4XE7NvKf-5" style="edgeStyle=orthogonalEdgeStyle;rounded=0;orthogonalLoop=1;jettySize=auto;html=1;entryX=0.5;entryY=0;entryDx=0;entryDy=0;entryPerimeter=0;strokeWidth=2;" edge="1" parent="1" source="hND2gdonh0gF4XE7NvKf-9" target="hND2gdonh0gF4XE7NvKf-23">
          <mxGeometry relative="1" as="geometry" />
        </mxCell>
        <mxCell id="hND2gdonh0gF4XE7NvKf-16" style="edgeStyle=orthogonalEdgeStyle;rounded=0;orthogonalLoop=1;jettySize=auto;html=1;strokeWidth=2;" edge="1" parent="1" source="hND2gdonh0gF4XE7NvKf-18" target="hND2gdonh0gF4XE7NvKf-33">
          <mxGeometry relative="1" as="geometry">
            <Array as="points">
              <mxPoint x="750" y="450" />
              <mxPoint x="650" y="450" />
            </Array>
          </mxGeometry>
        </mxCell>
        <mxCell id="hND2gdonh0gF4XE7NvKf-17" value="&amp;nbsp;process payment&amp;nbsp;&lt;br&gt;or reversal" style="edgeLabel;html=1;align=center;verticalAlign=middle;resizable=0;points=[];" connectable="0" vertex="1" parent="hND2gdonh0gF4XE7NvKf-16">
          <mxGeometry y="1" relative="1" as="geometry">
            <mxPoint x="-20" as="offset" />
          </mxGeometry>
        </mxCell>
        <mxCell id="hND2gdonh0gF4XE7NvKf-18" value="wlp-core" style="rounded=0;whiteSpace=wrap;html=1;fillColor=#A9C4EB;strokeColor=#7EA6E0;fontColor=#000000;" vertex="1" parent="1">
          <mxGeometry x="690" y="310" width="120" height="60" as="geometry" />
        </mxCell>
        <mxCell id="hND2gdonh0gF4XE7NvKf-19" style="edgeStyle=orthogonalEdgeStyle;rounded=0;orthogonalLoop=1;jettySize=auto;html=1;strokeWidth=2;" edge="1" parent="1" source="hND2gdonh0gF4XE7NvKf-21" target="hND2gdonh0gF4XE7NvKf-18">
          <mxGeometry relative="1" as="geometry" />
        </mxCell>
        <mxCell id="hND2gdonh0gF4XE7NvKf-20" value="complete registration/payment" style="edgeLabel;html=1;align=center;verticalAlign=middle;resizable=0;points=[];" connectable="0" vertex="1" parent="hND2gdonh0gF4XE7NvKf-19">
          <mxGeometry x="0.0286" y="-2" relative="1" as="geometry">
            <mxPoint y="-6" as="offset" />
          </mxGeometry>
        </mxCell>
        <mxCell id="hND2gdonh0gF4XE7NvKf-23" value="&lt;div&gt;subject,&lt;/div&gt;&lt;div&gt;&lt;br&gt;&lt;/div&gt;reference id&lt;br&gt;(&lt;span style=&quot;background-color: initial;&quot;&gt;payment means id),&lt;/span&gt;&lt;br&gt;&lt;div&gt;&lt;br&gt;&lt;/div&gt;&lt;div&gt;mandate,&lt;/div&gt;&lt;div&gt;&lt;br&gt;&lt;/div&gt;&lt;div&gt;enrollment/payment token&lt;/div&gt;&lt;div&gt;&lt;br&gt;&lt;/div&gt;&lt;div&gt;wlp-registration-data&lt;/div&gt;" style="shape=cylinder3;whiteSpace=wrap;html=1;boundedLbl=1;backgroundOutline=1;size=15;" vertex="1" parent="1">
          <mxGeometry x="234" y="439" width="152" height="190" as="geometry" />
        </mxCell>
        <mxCell id="hND2gdonh0gF4XE7NvKf-31" value="Use cases Enrolments/&lt;div&gt;Payments/&lt;/div&gt;&lt;div&gt;Reversals&lt;/div&gt;&lt;div&gt;&lt;br&gt;&lt;/div&gt;" style="text;html=1;strokeColor=none;fillColor=none;align=center;verticalAlign=middle;whiteSpace=wrap;rounded=0;" vertex="1" parent="1">
          <mxGeometry x="650" y="-40" width="124" height="30" as="geometry" />
        </mxCell>
        <mxCell id="hND2gdonh0gF4XE7NvKf-33" value="&lt;div&gt;Transaction Engine&lt;/div&gt;" style="rounded=0;whiteSpace=wrap;html=1;fillColor=#fff2cc;strokeColor=#d6b656;" vertex="1" parent="1">
          <mxGeometry x="600" y="490" width="120" height="60" as="geometry" />
        </mxCell>
        <mxCell id="ZFI_mKhUi8gvMjbTQsfc-7" style="edgeStyle=orthogonalEdgeStyle;rounded=0;orthogonalLoop=1;jettySize=auto;html=1;exitX=0.5;exitY=1;exitDx=0;exitDy=0;entryX=0.25;entryY=1;entryDx=0;entryDy=0;" edge="1" parent="1" source="hND2gdonh0gF4XE7NvKf-34" target="hND2gdonh0gF4XE7NvKf-49">
          <mxGeometry relative="1" as="geometry">
            <Array as="points">
              <mxPoint x="510" y="570" />
              <mxPoint x="830" y="570" />
              <mxPoint x="830" y="455" />
            </Array>
          </mxGeometry>
        </mxCell>
        <mxCell id="ZFI_mKhUi8gvMjbTQsfc-8" value="Publish mandate notifications&lt;div&gt;expiry soon, expired&lt;/div&gt;" style="edgeLabel;html=1;align=center;verticalAlign=middle;resizable=0;points=[];" connectable="0" vertex="1" parent="ZFI_mKhUi8gvMjbTQsfc-7">
          <mxGeometry x="-0.2333" relative="1" as="geometry">
            <mxPoint as="offset" />
          </mxGeometry>
        </mxCell>
        <mxCell id="hND2gdonh0gF4XE7NvKf-34" value="Storage Vault&lt;br&gt;(CDE)" style="rounded=0;whiteSpace=wrap;html=1;fillColor=#fff2cc;strokeColor=#d6b656;" vertex="1" parent="1">
          <mxGeometry x="450" y="490" width="120" height="60" as="geometry" />
        </mxCell>
        <mxCell id="hND2gdonh0gF4XE7NvKf-35" value="wlp-sdk" style="rounded=0;whiteSpace=wrap;html=1;fillColor=#d5e8d4;strokeColor=#82b366;" vertex="1" parent="1">
          <mxGeometry x="-138" y="137" width="65" height="216" as="geometry" />
        </mxCell>
        <mxCell id="hND2gdonh0gF4XE7NvKf-36" style="edgeStyle=orthogonalEdgeStyle;rounded=0;orthogonalLoop=1;jettySize=auto;html=1;exitX=0.75;exitY=0;exitDx=0;exitDy=0;entryX=0;entryY=0.25;entryDx=0;entryDy=0;strokeWidth=2;" edge="1" parent="1" source="hND2gdonh0gF4XE7NvKf-35" target="hND2gdonh0gF4XE7NvKf-35">
          <mxGeometry relative="1" as="geometry">
            <Array as="points">
              <mxPoint x="-223" y="95" />
              <mxPoint x="-223" y="191" />
            </Array>
          </mxGeometry>
        </mxCell>
        <mxCell id="hND2gdonh0gF4XE7NvKf-37" value="&amp;nbsp;Calculate pub/private key pair&amp;nbsp;" style="edgeLabel;html=1;align=center;verticalAlign=middle;resizable=0;points=[];" connectable="0" vertex="1" parent="hND2gdonh0gF4XE7NvKf-36">
          <mxGeometry x="-0.4954" y="-1" relative="1" as="geometry">
            <mxPoint x="-19" as="offset" />
          </mxGeometry>
        </mxCell>
        <mxCell id="hND2gdonh0gF4XE7NvKf-40" style="edgeStyle=orthogonalEdgeStyle;rounded=0;orthogonalLoop=1;jettySize=auto;html=1;entryX=0.5;entryY=0;entryDx=0;entryDy=0;strokeWidth=2;endArrow=classic;endFill=0;" edge="1" parent="1" source="hND2gdonh0gF4XE7NvKf-41" target="hND2gdonh0gF4XE7NvKf-21">
          <mxGeometry relative="1" as="geometry" />
        </mxCell>
        <mxCell id="hND2gdonh0gF4XE7NvKf-41" value="Host&lt;br&gt;(Poseidon)" style="rounded=0;whiteSpace=wrap;html=1;fillColor=#f8cecc;strokeColor=#b85450;" vertex="1" parent="1">
          <mxGeometry x="690" y="-200" width="120" height="60" as="geometry" />
        </mxCell>
        <mxCell id="hND2gdonh0gF4XE7NvKf-43" value="" style="endArrow=classic;startArrow=classic;html=1;rounded=0;strokeWidth=2;entryX=0.5;entryY=0;entryDx=0;entryDy=0;" edge="1" parent="1" target="hND2gdonh0gF4XE7NvKf-9">
          <mxGeometry width="50" height="50" relative="1" as="geometry">
            <mxPoint x="308" y="140" as="sourcePoint" />
            <mxPoint x="308" y="310" as="targetPoint" />
            <Array as="points">
              <mxPoint x="308" y="240" />
              <mxPoint x="195" y="240" />
            </Array>
          </mxGeometry>
        </mxCell>
        <mxCell id="hND2gdonh0gF4XE7NvKf-44" value="pass PAN&lt;br&gt;fetch IBAN" style="edgeLabel;html=1;align=center;verticalAlign=middle;resizable=0;points=[];" connectable="0" vertex="1" parent="hND2gdonh0gF4XE7NvKf-43">
          <mxGeometry y="-4" relative="1" as="geometry">
            <mxPoint y="-15" as="offset" />
          </mxGeometry>
        </mxCell>
        <mxCell id="hND2gdonh0gF4XE7NvKf-46" style="edgeStyle=orthogonalEdgeStyle;rounded=0;orthogonalLoop=1;jettySize=auto;html=1;strokeWidth=2;shadow=0;" edge="1" parent="1">
          <mxGeometry relative="1" as="geometry">
            <Array as="points">
              <mxPoint x="770" y="420" />
              <mxPoint x="894" y="420" />
            </Array>
            <mxPoint x="770" y="370" as="sourcePoint" />
            <mxPoint x="980" y="420" as="targetPoint" />
          </mxGeometry>
        </mxCell>
        <mxCell id="hND2gdonh0gF4XE7NvKf-47" value="publish notification" style="edgeLabel;html=1;align=center;verticalAlign=middle;resizable=1;points=[];movable=1;rotatable=1;deletable=1;editable=1;locked=0;connectable=1;" connectable="0" vertex="1" parent="hND2gdonh0gF4XE7NvKf-46">
          <mxGeometry y="1" relative="1" as="geometry">
            <mxPoint x="30" y="1" as="offset" />
          </mxGeometry>
        </mxCell>
        <mxCell id="hND2gdonh0gF4XE7NvKf-48" value="merchant webhook" style="rounded=0;whiteSpace=wrap;html=1;fillColor=#f8cecc;strokeColor=#b85450;" vertex="1" parent="1">
          <mxGeometry x="440" y="720" width="120" height="60" as="geometry" />
        </mxCell>
        <mxCell id="hND2gdonh0gF4XE7NvKf-49" value="" style="editableCssRules=.*;html=1;shape=image;verticalLabelPosition=bottom;labelBackgroundColor=#ffffff;verticalAlign=top;aspect=fixed;imageAspect=0;image=data:image/svg+xml,PHN2ZyB4bWxucz0iaHR0cDovL3d3dy53My5vcmcvMjAwMC9zdmciIHhtbG5zOnY9Imh0dHBzOi8vdmVjdGEuaW8vbmFubyIgd2lkdGg9IjE4LjMxOTk5OTY5NDgyNDIyIiBoZWlnaHQ9IjIwLjAwMDAwMTkwNzM0ODYzMyIgdmlld0JveD0iMCAwIDE4LjMxOTk5OTY5NDgyNDIyIDIwLjAwMDAwMTkwNzM0ODYzMyI+JiN4YTsJPHN0eWxlIHR5cGU9InRleHQvY3NzIj4mI3hhOwkuc3Qwe2ZpbGw6IzY2OWRmNjt9JiN4YTsJLnN0MXtmaWxsOiM0Mjg1ZjQ7fSYjeGE7CS5zdDJ7ZmlsbDojYWVjYmZhO30mI3hhOwk8L3N0eWxlPiYjeGE7CTxkZWZzPiYjeGE7CQk8ZmlsdGVyIGlkPSJBIiB4PSI0LjY0IiB5PSI0LjE5IiB3aWR0aD0iMTQuNzMiIGhlaWdodD0iMTIuNzYiIGZpbHRlclVuaXRzPSJ1c2VyU3BhY2VPblVzZSIgY29sb3ItaW50ZXJwb2xhdGlvbi1maWx0ZXJzPSJzUkdCIj4mI3hhOwkJCTxmZUZsb29kIGZsb29kLWNvbG9yPSIjZmZmIi8+JiN4YTsJCQk8ZmVCbGVuZCBpbj0iU291cmNlR3JhcGhpYyIvPiYjeGE7CQk8L2ZpbHRlcj4mI3hhOwkJPG1hc2sgaWQ9IkIiIHg9IjQuNjQiIHk9IjQuMTkiIHdpZHRoPSIxNC43MyIgaGVpZ2h0PSIxMi43NiIgbWFza1VuaXRzPSJ1c2VyU3BhY2VPblVzZSI+JiN4YTsJCQk8Y2lyY2xlIGN4PSIxMiIgY3k9IjEyLjIzIiByPSIzLjU4IiBmaWx0ZXI9InVybCgjQSkiLz4mI3hhOwkJPC9tYXNrPiYjeGE7CTwvZGVmcz4mI3hhOwk8ZyBjbGFzcz0ic3QwIj4mI3hhOwkJPGNpcmNsZSBjeD0iMTYuMTMiIGN5PSI2LjIxIiByPSIxLjcyIi8+JiN4YTsJCTxjaXJjbGUgY3g9IjIuMTkiIGN5PSI2LjIxIiByPSIxLjcyIi8+JiN4YTsJCTxjaXJjbGUgY3g9IjkuMTYiIGN5PSIxOC4yOCIgcj0iMS43MiIvPiYjeGE7CTwvZz4mI3hhOwk8ZyBtYXNrPSJ1cmwoI0IpIiB0cmFuc2Zvcm09InRyYW5zbGF0ZSgtMi44NCAtMikiPiYjeGE7CQk8cGF0aCB0cmFuc2Zvcm09Im1hdHJpeCguNSAtLjg3IC44NyAuNSAtNC41OSAyMC41MykiIGQ9Ik0xNC42OSAxMC4yMmgxLjU5djguMDRoLTEuNTl6IiBjbGFzcz0ic3QxIi8+JiN4YTsJCTxwYXRoIHRyYW5zZm9ybT0icm90YXRlKDMzMCA4LjUyMyAxNC4yNDQpIiBkPSJNNC40OSAxMy40NWg4LjA0djEuNTlINC40OXoiIGNsYXNzPSJzdDEiLz4mI3hhOwkJPHBhdGggZD0iTTExLjIgNC4xOWgxLjU5djguMDRIMTEuMnoiIGNsYXNzPSJzdDEiLz4mI3hhOwk8L2c+JiN4YTsJPGcgY2xhc3M9InN0MiI+JiN4YTsJCTxjaXJjbGUgY3g9IjkuMTYiIGN5PSIxMC4yMyIgcj0iMi43OCIvPiYjeGE7CQk8Y2lyY2xlIGN4PSIyLjE5IiBjeT0iMTQuMjUiIHI9IjIuMTkiLz4mI3hhOwkJPGNpcmNsZSBjeD0iMTYuMTMiIGN5PSIxNC4yNSIgcj0iMi4xOSIvPiYjeGE7CQk8Y2lyY2xlIGN4PSI5LjE2IiBjeT0iMi4xOSIgcj0iMi4xOSIvPiYjeGE7CTwvZz4mI3hhOzwvc3ZnPg==;" vertex="1" parent="1">
          <mxGeometry x="984" y="353" width="92" height="102.22" as="geometry" />
        </mxCell>
        <mxCell id="hND2gdonh0gF4XE7NvKf-50" value="" style="endArrow=classic;html=1;rounded=0;strokeWidth=2;entryX=1;entryY=0.25;entryDx=0;entryDy=0;exitX=0;exitY=0.5;exitDx=0;exitDy=0;" edge="1" parent="1" source="hND2gdonh0gF4XE7NvKf-45">
          <mxGeometry width="50" height="50" relative="1" as="geometry">
            <mxPoint x="782" y="640" as="sourcePoint" />
            <mxPoint x="560" y="752" as="targetPoint" />
            <Array as="points">
              <mxPoint x="730" y="660" />
              <mxPoint x="730" y="727" />
              <mxPoint x="730" y="752" />
            </Array>
          </mxGeometry>
        </mxCell>
        <mxCell id="hND2gdonh0gF4XE7NvKf-51" value="send notification (request API)&lt;br style=&quot;border-color: var(--border-color);&quot;&gt;enrolments / payment / mandate" style="edgeLabel;html=1;align=center;verticalAlign=middle;resizable=0;points=[];" connectable="0" vertex="1" parent="1">
          <mxGeometry x="650" y="730" as="geometry">
            <mxPoint x="-5" y="3" as="offset" />
          </mxGeometry>
        </mxCell>
        <mxCell id="Luu7UlPxSmGY6lPHIPH3-23" value="" style="endArrow=classic;html=1;rounded=0;strokeWidth=2;entryX=0.5;entryY=0;entryDx=0;entryDy=0;" edge="1" parent="1" target="hND2gdonh0gF4XE7NvKf-45">
          <mxGeometry relative="1" as="geometry">
            <mxPoint x="1031" y="451" as="sourcePoint" />
            <mxPoint x="910" y="533" as="targetPoint" />
            <Array as="points">
              <mxPoint x="1030" y="590" />
              <mxPoint x="850" y="590" />
            </Array>
          </mxGeometry>
        </mxCell>
        <mxCell id="Luu7UlPxSmGY6lPHIPH3-24" value="&lt;font style=&quot;font-size: 12px;&quot;&gt;Async pull notification&lt;/font&gt;" style="edgeLabel;resizable=0;html=1;align=center;verticalAlign=middle;" connectable="0" vertex="1" parent="Luu7UlPxSmGY6lPHIPH3-23">
          <mxGeometry relative="1" as="geometry">
            <mxPoint x="-41" y="-13" as="offset" />
          </mxGeometry>
        </mxCell>
        <mxCell id="4wFAq3uvpjrImp90_rTb-3" style="edgeStyle=orthogonalEdgeStyle;rounded=0;orthogonalLoop=1;jettySize=auto;html=1;strokeWidth=2;endArrow=classic;endFill=1;startArrow=none;startFill=0;entryX=1;entryY=0.25;entryDx=0;entryDy=0;" edge="1" parent="1" target="hND2gdonh0gF4XE7NvKf-9">
          <mxGeometry relative="1" as="geometry">
            <mxPoint x="688" y="325" as="sourcePoint" />
            <mxPoint x="420" y="320" as="targetPoint" />
          </mxGeometry>
        </mxCell>
        <mxCell id="4wFAq3uvpjrImp90_rTb-4" value="&amp;nbsp;create subject, payment means, payment tokens" style="edgeLabel;html=1;align=center;verticalAlign=middle;resizable=0;points=[];" connectable="0" vertex="1" parent="4wFAq3uvpjrImp90_rTb-3">
          <mxGeometry x="-0.0222" y="2" relative="1" as="geometry">
            <mxPoint x="4" y="-4" as="offset" />
          </mxGeometry>
        </mxCell>
        <mxCell id="ZFI_mKhUi8gvMjbTQsfc-1" value="" style="edgeStyle=orthogonalEdgeStyle;rounded=0;orthogonalLoop=1;jettySize=auto;html=1;" edge="1" parent="1" source="4wFAq3uvpjrImp90_rTb-5" target="4wFAq3uvpjrImp90_rTb-6">
          <mxGeometry relative="1" as="geometry" />
        </mxCell>
        <mxCell id="4wFAq3uvpjrImp90_rTb-5" value="Cash desk" style="rounded=0;whiteSpace=wrap;html=1;fillColor=#f8cecc;strokeColor=#b85450;" vertex="1" parent="1">
          <mxGeometry x="120" y="-200" width="151" height="60" as="geometry" />
        </mxCell>
        <mxCell id="4wFAq3uvpjrImp90_rTb-6" value="Terminal" style="rounded=0;whiteSpace=wrap;html=1;fillColor=#f8cecc;strokeColor=#b85450;" vertex="1" parent="1">
          <mxGeometry x="400" y="-200" width="120" height="60" as="geometry" />
        </mxCell>
        <mxCell id="4wFAq3uvpjrImp90_rTb-9" value="" style="endArrow=classic;html=1;rounded=0;strokeWidth=2;entryX=0;entryY=0.65;entryDx=0;entryDy=0;entryPerimeter=0;" edge="1" parent="1" target="4wFAq3uvpjrImp90_rTb-5">
          <mxGeometry width="50" height="50" relative="1" as="geometry">
            <mxPoint x="-70" y="200" as="sourcePoint" />
            <mxPoint x="120" y="-18" as="targetPoint" />
            <Array as="points">
              <mxPoint x="80" y="200" />
              <mxPoint x="80" y="-18" />
              <mxPoint x="80" y="-161" />
            </Array>
          </mxGeometry>
        </mxCell>
        <mxCell id="4wFAq3uvpjrImp90_rTb-21" value="Enrolment/&lt;div&gt;Payment token&lt;/div&gt;" style="edgeLabel;html=1;align=center;verticalAlign=middle;resizable=0;points=[];" connectable="0" vertex="1" parent="1">
          <mxGeometry x="38.00192862297365" y="277.0010331865914" as="geometry">
            <mxPoint x="-10" y="-247" as="offset" />
          </mxGeometry>
        </mxCell>
        <mxCell id="4wFAq3uvpjrImp90_rTb-22" value="" style="endArrow=classic;html=1;rounded=0;entryX=1;entryY=0.75;entryDx=0;entryDy=0;exitX=0.008;exitY=0.867;exitDx=0;exitDy=0;exitPerimeter=0;strokeWidth=2;startArrow=none;startFill=0;" edge="1" parent="1" target="hND2gdonh0gF4XE7NvKf-9">
          <mxGeometry width="50" height="50" relative="1" as="geometry">
            <mxPoint x="689.96" y="355.02" as="sourcePoint" />
            <mxPoint x="369.96000000000004" y="355.98" as="targetPoint" />
          </mxGeometry>
        </mxCell>
        <mxCell id="4wFAq3uvpjrImp90_rTb-23" value="&amp;nbsp;fetch payment means, mandate token&amp;nbsp;" style="edgeLabel;html=1;align=center;verticalAlign=middle;resizable=0;points=[];" connectable="0" vertex="1" parent="1">
          <mxGeometry x="479" y="353" as="geometry" />
        </mxCell>
        <mxCell id="Z9LQ_HSbhSVxz28ouOhd-2" value="&lt;div&gt;store,&lt;/div&gt;terminal,&lt;div&gt;contract&lt;/div&gt;&lt;div&gt;&lt;br&gt;&lt;/div&gt;&lt;div&gt;wlp-core-data&lt;/div&gt;" style="shape=cylinder3;whiteSpace=wrap;html=1;boundedLbl=1;backgroundOutline=1;size=15;" vertex="1" parent="1">
          <mxGeometry x="890" y="277" width="79" height="109" as="geometry" />
        </mxCell>
        <mxCell id="Z9LQ_HSbhSVxz28ouOhd-3" value="" style="endArrow=classic;html=1;rounded=0;strokeWidth=2;" edge="1" parent="1">
          <mxGeometry width="50" height="50" relative="1" as="geometry">
            <mxPoint x="810" y="340" as="sourcePoint" />
            <mxPoint x="890" y="340" as="targetPoint" />
          </mxGeometry>
        </mxCell>
        <mxCell id="NTcChNj6e4HEuZE3eQq--4" value="" style="edgeStyle=orthogonalEdgeStyle;rounded=0;orthogonalLoop=1;jettySize=auto;html=1;" edge="1" parent="1" target="hND2gdonh0gF4XE7NvKf-41">
          <mxGeometry relative="1" as="geometry">
            <mxPoint x="520" y="-170" as="sourcePoint" />
          </mxGeometry>
        </mxCell>
        <mxCell id="ZFI_mKhUi8gvMjbTQsfc-2" value="ZVTH (ISO-8583)" style="text;html=1;strokeColor=#3333FF;fillColor=none;align=center;verticalAlign=middle;whiteSpace=wrap;rounded=0;" vertex="1" parent="1">
          <mxGeometry x="540" y="-200" width="124" height="30" as="geometry" />
        </mxCell>
        <mxCell id="ZFI_mKhUi8gvMjbTQsfc-3" value="ZVTK (ISO-8583)" style="text;html=1;strokeColor=#3333FF;fillColor=#FFFFFF;align=center;verticalAlign=middle;whiteSpace=wrap;rounded=0;" vertex="1" parent="1">
          <mxGeometry x="271" y="-200" width="124" height="30" as="geometry" />
        </mxCell>
        <mxCell id="ZFI_mKhUi8gvMjbTQsfc-9" value="Scan Barcode manually" style="text;html=1;strokeColor=#3333FF;fillColor=#FFFFFF;align=center;verticalAlign=middle;whiteSpace=wrap;rounded=0;" vertex="1" parent="1">
          <mxGeometry x="-20" y="-200" width="124" height="30" as="geometry" />
        </mxCell>
        <mxCell id="hND2gdonh0gF4XE7NvKf-60" value="GICC (ISO-8583)" style="text;html=1;strokeColor=#3333FF;fillColor=none;align=center;verticalAlign=middle;whiteSpace=wrap;rounded=0;" vertex="1" parent="1">
          <mxGeometry x="750" y="-100" width="124" height="30" as="geometry" />
        </mxCell>
        <mxCell id="ZFI_mKhUi8gvMjbTQsfc-12" value="" style="endArrow=classic;html=1;rounded=0;exitX=1.046;exitY=0.87;exitDx=0;exitDy=0;exitPerimeter=0;entryX=0;entryY=0.25;entryDx=0;entryDy=0;" edge="1" parent="1" source="hND2gdonh0gF4XE7NvKf-35" target="hND2gdonh0gF4XE7NvKf-9">
          <mxGeometry width="50" height="50" relative="1" as="geometry">
            <mxPoint x="590" y="270" as="sourcePoint" />
            <mxPoint x="640" y="220" as="targetPoint" />
          </mxGeometry>
        </mxCell>
        <mxCell id="ZFI_mKhUi8gvMjbTQsfc-13" value="pass public key&lt;br&gt;fetch payment means/&lt;div&gt;payment tokens/&lt;/div&gt;&lt;div&gt;deactivate payment means/&lt;/div&gt;&lt;div&gt;sign off&lt;/div&gt;" style="edgeLabel;html=1;align=center;verticalAlign=middle;resizable=0;points=[];" connectable="0" vertex="1" parent="ZFI_mKhUi8gvMjbTQsfc-12">
          <mxGeometry x="-0.2187" y="-2" relative="1" as="geometry">
            <mxPoint x="40" as="offset" />
          </mxGeometry>
        </mxCell>
        <mxCell id="LPeYl59csrmdZ0oTzDuq-33" value="https" style="text;html=1;strokeColor=#3333FF;fillColor=#FFFFFF;align=center;verticalAlign=middle;whiteSpace=wrap;rounded=0;" vertex="1" parent="1">
          <mxGeometry x="-69" y="293" width="53" height="30" as="geometry" />
        </mxCell>
        <mxCell id="LPeYl59csrmdZ0oTzDuq-36" value="https" style="text;html=1;strokeColor=#3333FF;fillColor=#FFFFFF;align=center;verticalAlign=middle;whiteSpace=wrap;rounded=0;" vertex="1" parent="1">
          <mxGeometry x="622" y="754" width="53" height="30" as="geometry" />
        </mxCell>
        <mxCell id="LPeYl59csrmdZ0oTzDuq-37" value="" style="endArrow=none;dashed=1;html=1;dashPattern=1 3;strokeWidth=2;rounded=0;exitX=0;exitY=1;exitDx=0;exitDy=-15;exitPerimeter=0;entryX=1;entryY=1;entryDx=0;entryDy=-15;entryPerimeter=0;" edge="1" parent="1">
          <mxGeometry width="50" height="50" relative="1" as="geometry">
            <mxPoint x="234" y="601" as="sourcePoint" />
            <mxPoint x="386" y="601" as="targetPoint" />
          </mxGeometry>
        </mxCell>
        <mxCell id="LPeYl59csrmdZ0oTzDuq-43" value="" style="endArrow=none;dashed=1;html=1;dashPattern=1 3;strokeWidth=2;rounded=0;" edge="1" parent="1">
          <mxGeometry width="50" height="50" relative="1" as="geometry">
            <mxPoint x="959" y="667" as="sourcePoint" />
            <mxPoint x="1060" y="667" as="targetPoint" />
          </mxGeometry>
        </mxCell>
        <mxCell id="LPeYl59csrmdZ0oTzDuq-44" value="" style="endArrow=classic;html=1;rounded=0;strokeColor=default;strokeWidth=2;align=center;verticalAlign=middle;fontFamily=Helvetica;fontSize=11;fontColor=default;labelBackgroundColor=default;exitX=1;exitY=0.5;exitDx=0;exitDy=0;" edge="1" parent="1" source="hND2gdonh0gF4XE7NvKf-45">
          <mxGeometry width="50" height="50" relative="1" as="geometry">
            <mxPoint x="930" y="650" as="sourcePoint" />
            <mxPoint x="960" y="660" as="targetPoint" />
          </mxGeometry>
        </mxCell>
        <mxCell id="UggaxbtBxv-heRh-20AI-4" value="" style="aspect=fixed;sketch=0;html=1;dashed=0;whitespace=wrap;verticalLabelPosition=bottom;verticalAlign=top;fillColor=#2875E2;strokeColor=#ffffff;points=[[0.005,0.63,0],[0.1,0.2,0],[0.9,0.2,0],[0.5,0,0],[0.995,0.63,0],[0.72,0.99,0],[0.5,1,0],[0.28,0.99,0]];shape=mxgraph.kubernetes.icon2;kubernetesLabel=1;prIcon=pod" vertex="1" parent="1">
          <mxGeometry x="788" y="52" width="41.67" height="40" as="geometry" />
        </mxCell>
        <mxCell id="UggaxbtBxv-heRh-20AI-5" value="" style="aspect=fixed;sketch=0;html=1;dashed=0;whitespace=wrap;verticalLabelPosition=bottom;verticalAlign=top;fillColor=#2875E2;strokeColor=#ffffff;points=[[0.005,0.63,0],[0.1,0.2,0],[0.9,0.2,0],[0.5,0,0],[0.995,0.63,0],[0.72,0.99,0],[0.5,1,0],[0.28,0.99,0]];shape=mxgraph.kubernetes.icon2;kubernetesLabel=1;prIcon=pod" vertex="1" parent="1">
          <mxGeometry x="788" y="342" width="41.67" height="40" as="geometry" />
        </mxCell>
        <mxCell id="UggaxbtBxv-heRh-20AI-7" value="" style="aspect=fixed;sketch=0;html=1;dashed=0;whitespace=wrap;verticalLabelPosition=bottom;verticalAlign=top;fillColor=#2875E2;strokeColor=#ffffff;points=[[0.005,0.63,0],[0.1,0.2,0],[0.9,0.2,0],[0.5,0,0],[0.995,0.63,0],[0.72,0.99,0],[0.5,1,0],[0.28,0.99,0]];shape=mxgraph.kubernetes.icon2;kubernetesLabel=1;prIcon=pod" vertex="1" parent="1">
          <mxGeometry x="889" y="662" width="41.67" height="40" as="geometry" />
        </mxCell>
        <mxCell id="UggaxbtBxv-heRh-20AI-8" value="Cloud&#xa;Spanner" style="sketch=0;html=1;verticalAlign=top;labelPosition=center;verticalLabelPosition=bottom;align=center;spacingTop=-6;fontSize=8;fontStyle=1;fontColor=#999999;shape=image;aspect=fixed;imageAspect=0;image=data:image/svg+xml,PHN2ZyB4bWxucz0iaHR0cDovL3d3dy53My5vcmcvMjAwMC9zdmciIHhtbG5zOnY9Imh0dHBzOi8vdmVjdGEuaW8vbmFubyIgd2lkdGg9IjIwIiBoZWlnaHQ9IjE4LjQ1OTk5OTA4NDQ3MjY1NiIgZmlsbC1ydWxlPSJldmVub2RkIiB2aWV3Qm94PSIwIDAgMjAgMTguNDU5OTk5MDg0NDcyNjU2Ij4mI3hhOwk8c3R5bGUgdHlwZT0idGV4dC9jc3MiPiYjeGE7CQkuc3Qwe2ZpbGw6IzQyODVmNDt9JiN4YTsJCS5zdDF7ZmlsbDojNjY5ZGY2O30mI3hhOwkJLnN0MntmaWxsOiNhZWNiZmE7fSYjeGE7CTwvc3R5bGU+JiN4YTsJPHBhdGggY2xhc3M9InN0MSIgZD0iTTguNjYgNS42M3Y0LjM2bC0zLjc3IDIuMTggMS4zNCAyLjMyTDEwIDEyLjMxbDMuNzcgMi4xOCAxLjM0LTIuMzItMy43Ny0yLjE4VjUuNjN6Ii8+JiN4YTsJPHBhdGggY2xhc3M9InN0MCIgZD0iTTEwIDUuNjN2NS4xMmwtNC40NCAyLjU4LjY3IDEuMTZMMTAgMTIuMzFsMy43NyAyLjE4IDEuMzQtMi4zMi0zLjc3LTIuMThWNS42M3oiLz4mI3hhOwk8cGF0aCBjbGFzcz0ic3QyIiBkPSJNNi42MiA0Ljk1TDEwIDYuNzhWMy42N2wtMS4zNS0uNjJWMEw2LjYyIDEuMjJ6Ii8+JiN4YTsJPHBhdGggY2xhc3M9InN0MSIgZD0iTTEwIDYuNzhsMy4zOC0xLjgzVjEuMjJMMTEuMzUgMHYzLjA1TDEwIDMuNjd6bTYuMTQgNy41M2wtLjA4IDEuMzkgMi43IDEuNTMtMi4xOCAxLjItMy4yNC0xLjg3LjExLTMuODMgMy4yNy0yTDIwIDEyLjYxdjIuNDlsLTIuNjktMS41NXptLTEyLjI4IDBsLTEuMTctLjc2TDAgMTUuMXYtMi40OWwzLjIzLTEuODcgMy4yNyAyIC4xMSAzLjgzLTMuMTkgMS44OS0yLjE4LTEuMjMgMi43LTEuNTZ6Ii8+JiN4YTsJPHBhdGggY2xhc3M9InN0MiIgZD0iTTE2LjcyIDEwLjc1bC0zLjI3IDIuMDEgMi42OSAxLjU1IDEuMTYtLjc2TDIwIDE1LjFsLS4wNS0yLjQ5ek0zLjg2IDE0LjMxbDIuNjktMS41NS0zLjI3LTIuMDEtMy4yMyAxLjg2TDAgMTUuMWwyLjctMS41NXoiLz4mI3hhOzwvc3ZnPg==;" vertex="1" parent="1">
          <mxGeometry x="374" y="604" width="25" height="20.93" as="geometry" />
        </mxCell>
        <mxCell id="UggaxbtBxv-heRh-20AI-10" value="Cloud&#xa;Spanner" style="sketch=0;html=1;verticalAlign=top;labelPosition=center;verticalLabelPosition=bottom;align=center;spacingTop=-6;fontSize=8;fontStyle=1;fontColor=#999999;shape=image;aspect=fixed;imageAspect=0;image=data:image/svg+xml,PHN2ZyB4bWxucz0iaHR0cDovL3d3dy53My5vcmcvMjAwMC9zdmciIHhtbG5zOnY9Imh0dHBzOi8vdmVjdGEuaW8vbmFubyIgd2lkdGg9IjIwIiBoZWlnaHQ9IjE4LjQ1OTk5OTA4NDQ3MjY1NiIgZmlsbC1ydWxlPSJldmVub2RkIiB2aWV3Qm94PSIwIDAgMjAgMTguNDU5OTk5MDg0NDcyNjU2Ij4mI3hhOwk8c3R5bGUgdHlwZT0idGV4dC9jc3MiPiYjeGE7CQkuc3Qwe2ZpbGw6IzQyODVmNDt9JiN4YTsJCS5zdDF7ZmlsbDojNjY5ZGY2O30mI3hhOwkJLnN0MntmaWxsOiNhZWNiZmE7fSYjeGE7CTwvc3R5bGU+JiN4YTsJPHBhdGggY2xhc3M9InN0MSIgZD0iTTguNjYgNS42M3Y0LjM2bC0zLjc3IDIuMTggMS4zNCAyLjMyTDEwIDEyLjMxbDMuNzcgMi4xOCAxLjM0LTIuMzItMy43Ny0yLjE4VjUuNjN6Ii8+JiN4YTsJPHBhdGggY2xhc3M9InN0MCIgZD0iTTEwIDUuNjN2NS4xMmwtNC40NCAyLjU4LjY3IDEuMTZMMTAgMTIuMzFsMy43NyAyLjE4IDEuMzQtMi4zMi0zLjc3LTIuMThWNS42M3oiLz4mI3hhOwk8cGF0aCBjbGFzcz0ic3QyIiBkPSJNNi42MiA0Ljk1TDEwIDYuNzhWMy42N2wtMS4zNS0uNjJWMEw2LjYyIDEuMjJ6Ii8+JiN4YTsJPHBhdGggY2xhc3M9InN0MSIgZD0iTTEwIDYuNzhsMy4zOC0xLjgzVjEuMjJMMTEuMzUgMHYzLjA1TDEwIDMuNjd6bTYuMTQgNy41M2wtLjA4IDEuMzkgMi43IDEuNTMtMi4xOCAxLjItMy4yNC0xLjg3LjExLTMuODMgMy4yNy0yTDIwIDEyLjYxdjIuNDlsLTIuNjktMS41NXptLTEyLjI4IDBsLTEuMTctLjc2TDAgMTUuMXYtMi40OWwzLjIzLTEuODcgMy4yNyAyIC4xMSAzLjgzLTMuMTkgMS44OS0yLjE4LTEuMjMgMi43LTEuNTZ6Ii8+JiN4YTsJPHBhdGggY2xhc3M9InN0MiIgZD0iTTE2LjcyIDEwLjc1bC0zLjI3IDIuMDEgMi42OSAxLjU1IDEuMTYtLjc2TDIwIDE1LjFsLS4wNS0yLjQ5ek0zLjg2IDE0LjMxbDIuNjktMS41NS0zLjI3LTIuMDEtMy4yMyAxLjg2TDAgMTUuMWwyLjctMS41NXoiLz4mI3hhOzwvc3ZnPg==;" vertex="1" parent="1">
          <mxGeometry x="957" y="366" width="25" height="20.95" as="geometry" />
        </mxCell>
        <mxCell id="UggaxbtBxv-heRh-20AI-11" value="Cloud&#xa;Spanner" style="sketch=0;html=1;verticalAlign=top;labelPosition=center;verticalLabelPosition=bottom;align=center;spacingTop=-6;fontSize=8;fontStyle=1;fontColor=#999999;shape=image;aspect=fixed;imageAspect=0;image=data:image/svg+xml,PHN2ZyB4bWxucz0iaHR0cDovL3d3dy53My5vcmcvMjAwMC9zdmciIHhtbG5zOnY9Imh0dHBzOi8vdmVjdGEuaW8vbmFubyIgd2lkdGg9IjIwIiBoZWlnaHQ9IjE4LjQ1OTk5OTA4NDQ3MjY1NiIgZmlsbC1ydWxlPSJldmVub2RkIiB2aWV3Qm94PSIwIDAgMjAgMTguNDU5OTk5MDg0NDcyNjU2Ij4mI3hhOwk8c3R5bGUgdHlwZT0idGV4dC9jc3MiPiYjeGE7CQkuc3Qwe2ZpbGw6IzQyODVmNDt9JiN4YTsJCS5zdDF7ZmlsbDojNjY5ZGY2O30mI3hhOwkJLnN0MntmaWxsOiNhZWNiZmE7fSYjeGE7CTwvc3R5bGU+JiN4YTsJPHBhdGggY2xhc3M9InN0MSIgZD0iTTguNjYgNS42M3Y0LjM2bC0zLjc3IDIuMTggMS4zNCAyLjMyTDEwIDEyLjMxbDMuNzcgMi4xOCAxLjM0LTIuMzItMy43Ny0yLjE4VjUuNjN6Ii8+JiN4YTsJPHBhdGggY2xhc3M9InN0MCIgZD0iTTEwIDUuNjN2NS4xMmwtNC40NCAyLjU4LjY3IDEuMTZMMTAgMTIuMzFsMy43NyAyLjE4IDEuMzQtMi4zMi0zLjc3LTIuMThWNS42M3oiLz4mI3hhOwk8cGF0aCBjbGFzcz0ic3QyIiBkPSJNNi42MiA0Ljk1TDEwIDYuNzhWMy42N2wtMS4zNS0uNjJWMEw2LjYyIDEuMjJ6Ii8+JiN4YTsJPHBhdGggY2xhc3M9InN0MSIgZD0iTTEwIDYuNzhsMy4zOC0xLjgzVjEuMjJMMTEuMzUgMHYzLjA1TDEwIDMuNjd6bTYuMTQgNy41M2wtLjA4IDEuMzkgMi43IDEuNTMtMi4xOCAxLjItMy4yNC0xLjg3LjExLTMuODMgMy4yNy0yTDIwIDEyLjYxdjIuNDlsLTIuNjktMS41NXptLTEyLjI4IDBsLTEuMTctLjc2TDAgMTUuMXYtMi40OWwzLjIzLTEuODcgMy4yNyAyIC4xMSAzLjgzLTMuMTkgMS44OS0yLjE4LTEuMjMgMi43LTEuNTZ6Ii8+JiN4YTsJPHBhdGggY2xhc3M9InN0MiIgZD0iTTE2LjcyIDEwLjc1bC0zLjI3IDIuMDEgMi42OSAxLjU1IDEuMTYtLjc2TDIwIDE1LjFsLS4wNS0yLjQ5ek0zLjg2IDE0LjMxbDIuNjktMS41NS0zLjI3LTIuMDEtMy4yMyAxLjg2TDAgMTUuMWwyLjctMS41NXoiLz4mI3hhOzwvc3ZnPg==;" vertex="1" parent="1">
          <mxGeometry x="1047" y="677" width="25" height="20.95" as="geometry" />
        </mxCell>
        <mxCell id="jYUgQigbOioFWIF9Kmrc-1" value="" style="rounded=0;whiteSpace=wrap;html=1;fillColor=#A9C4EB;strokeColor=#7EA6E0;" vertex="1" parent="1">
          <mxGeometry x="-200" y="601" width="40" height="10" as="geometry" />
        </mxCell>
        <mxCell id="jYUgQigbOioFWIF9Kmrc-2" value="yourpay component" style="text;html=1;align=left;verticalAlign=middle;whiteSpace=wrap;rounded=0;" vertex="1" parent="1">
          <mxGeometry x="-151" y="591" width="160" height="30" as="geometry" />
        </mxCell>
        <mxCell id="jYUgQigbOioFWIF9Kmrc-3" value="" style="rounded=0;whiteSpace=wrap;html=1;fillColor=#fff2cc;strokeColor=#d6b656;" vertex="1" parent="1">
          <mxGeometry x="-200" y="630" width="40" height="10" as="geometry" />
        </mxCell>
        <mxCell id="jYUgQigbOioFWIF9Kmrc-4" value="paymenttools component" style="text;html=1;align=left;verticalAlign=middle;whiteSpace=wrap;rounded=0;" vertex="1" parent="1">
          <mxGeometry x="-150" y="620" width="160" height="30" as="geometry" />
        </mxCell>
        <mxCell id="jYUgQigbOioFWIF9Kmrc-5" value="" style="rounded=0;whiteSpace=wrap;html=1;fillColor=#f8cecc;strokeColor=#b85450;" vertex="1" parent="1">
          <mxGeometry x="-199" y="660" width="39" height="10" as="geometry" />
        </mxCell>
        <mxCell id="jYUgQigbOioFWIF9Kmrc-6" value="external component" style="text;html=1;align=left;verticalAlign=middle;whiteSpace=wrap;rounded=0;" vertex="1" parent="1">
          <mxGeometry x="-150" y="650" width="160" height="30" as="geometry" />
        </mxCell>
        <mxCell id="jYUgQigbOioFWIF9Kmrc-7" value="" style="rounded=0;whiteSpace=wrap;html=1;fillColor=#d5e8d4;strokeColor=#82b366;" vertex="1" parent="1">
          <mxGeometry x="-199" y="690" width="39" height="10" as="geometry" />
        </mxCell>
        <mxCell id="jYUgQigbOioFWIF9Kmrc-8" value="mobile sdk" style="text;html=1;align=left;verticalAlign=middle;whiteSpace=wrap;rounded=0;" vertex="1" parent="1">
          <mxGeometry x="-151" y="680" width="160" height="30" as="geometry" />
        </mxCell>
        <mxCell id="jYUgQigbOioFWIF9Kmrc-10" value="" style="endArrow=classic;startArrow=classic;html=1;rounded=0;entryX=0.75;entryY=1;entryDx=0;entryDy=0;exitX=0.408;exitY=0.017;exitDx=0;exitDy=0;exitPerimeter=0;strokeWidth=2;" edge="1" parent="1" source="hND2gdonh0gF4XE7NvKf-34" target="hND2gdonh0gF4XE7NvKf-9">
          <mxGeometry width="50" height="50" relative="1" as="geometry">
            <mxPoint x="390" y="450" as="sourcePoint" />
            <mxPoint x="440" y="400" as="targetPoint" />
            <Array as="points">
              <mxPoint x="500" y="390" />
              <mxPoint x="360" y="390" />
              <mxPoint x="225" y="390" />
            </Array>
          </mxGeometry>
        </mxCell>
        <mxCell id="hND2gdonh0gF4XE7NvKf-62" value="&amp;nbsp;create sepa mandate&amp;nbsp;" style="edgeLabel;html=1;align=center;verticalAlign=middle;resizable=0;points=[];" connectable="0" vertex="1" parent="1">
          <mxGeometry x="395" y="388.95" as="geometry">
            <mxPoint y="-1" as="offset" />
          </mxGeometry>
        </mxCell>
        <mxCell id="hND2gdonh0gF4XE7NvKf-9" value="wlp-registration" style="rounded=0;whiteSpace=wrap;html=1;fillColor=#A9C4EB;strokeColor=#7EA6E0;" vertex="1" parent="1">
          <mxGeometry x="135" y="310" width="120" height="60" as="geometry" />
        </mxCell>
      </root>
    </mxGraphModel>
  </diagram>
  <diagram id="IqV18AVKCYTP7JdijUF3" name="Page-2">
    <mxGraphModel grid="1" page="1" gridSize="10" guides="1" tooltips="1" connect="1" arrows="1" fold="1" pageScale="1" pageWidth="850" pageHeight="1100" math="0" shadow="0">
      <root>
        <mxCell id="0" />
        <mxCell id="1" parent="0" />
        <mxCell id="yXzpLyx6wZozPCda9eN--2" value="" style="rounded=0;whiteSpace=wrap;html=1;" vertex="1" parent="1">
          <mxGeometry x="104" y="-140" width="796" height="200" as="geometry" />
        </mxCell>
        <mxCell id="yXzpLyx6wZozPCda9eN--1" value="" style="ellipse;shape=cloud;whiteSpace=wrap;html=1;" vertex="1" parent="1">
          <mxGeometry x="-90" y="80" width="1060" height="620" as="geometry" />
        </mxCell>
        <mxCell id="81hd7Qf_IjLM73w-Kz5m-5" style="edgeStyle=orthogonalEdgeStyle;rounded=0;orthogonalLoop=1;jettySize=auto;html=1;entryX=0.5;entryY=0;entryDx=0;entryDy=0;entryPerimeter=0;strokeWidth=2;" edge="1" parent="1" source="81hd7Qf_IjLM73w-Kz5m-9" target="81hd7Qf_IjLM73w-Kz5m-23">
          <mxGeometry relative="1" as="geometry" />
        </mxCell>
        <mxCell id="81hd7Qf_IjLM73w-Kz5m-6" style="edgeStyle=orthogonalEdgeStyle;rounded=0;orthogonalLoop=1;jettySize=auto;html=1;entryX=0.5;entryY=1;entryDx=0;entryDy=0;strokeWidth=2;" edge="1" parent="1" source="81hd7Qf_IjLM73w-Kz5m-9" target="81hd7Qf_IjLM73w-Kz5m-44">
          <mxGeometry relative="1" as="geometry">
            <Array as="points" />
          </mxGeometry>
        </mxCell>
        <mxCell id="81hd7Qf_IjLM73w-Kz5m-7" value="validate auth token" style="edgeLabel;html=1;align=center;verticalAlign=middle;resizable=0;points=[];" connectable="0" vertex="1" parent="81hd7Qf_IjLM73w-Kz5m-6">
          <mxGeometry x="-0.1714" y="3" relative="1" as="geometry">
            <mxPoint as="offset" />
          </mxGeometry>
        </mxCell>
        <mxCell id="81hd7Qf_IjLM73w-Kz5m-8" style="edgeStyle=orthogonalEdgeStyle;rounded=0;orthogonalLoop=1;jettySize=auto;html=1;entryX=0;entryY=0.5;entryDx=0;entryDy=0;" edge="1" parent="1" source="81hd7Qf_IjLM73w-Kz5m-9" target="81hd7Qf_IjLM73w-Kz5m-18">
          <mxGeometry relative="1" as="geometry" />
        </mxCell>
        <mxCell id="81hd7Qf_IjLM73w-Kz5m-9" value="wlp-registration" style="rounded=0;whiteSpace=wrap;html=1;fillColor=#A9C4EB;strokeColor=#7EA6E0;" vertex="1" parent="1">
          <mxGeometry x="240" y="300" width="120" height="60" as="geometry" />
        </mxCell>
        <mxCell id="81hd7Qf_IjLM73w-Kz5m-10" style="edgeStyle=orthogonalEdgeStyle;rounded=0;orthogonalLoop=1;jettySize=auto;html=1;strokeWidth=2;" edge="1" parent="1" source="81hd7Qf_IjLM73w-Kz5m-18" target="81hd7Qf_IjLM73w-Kz5m-9">
          <mxGeometry relative="1" as="geometry" />
        </mxCell>
        <mxCell id="81hd7Qf_IjLM73w-Kz5m-11" value="&amp;nbsp;create payment means&amp;nbsp;" style="edgeLabel;html=1;align=center;verticalAlign=middle;resizable=0;points=[];" connectable="0" vertex="1" parent="81hd7Qf_IjLM73w-Kz5m-10">
          <mxGeometry x="-0.0222" y="2" relative="1" as="geometry">
            <mxPoint as="offset" />
          </mxGeometry>
        </mxCell>
        <mxCell id="81hd7Qf_IjLM73w-Kz5m-12" style="edgeStyle=orthogonalEdgeStyle;rounded=0;orthogonalLoop=1;jettySize=auto;html=1;entryX=0.75;entryY=1;entryDx=0;entryDy=0;strokeWidth=2;" edge="1" parent="1" source="81hd7Qf_IjLM73w-Kz5m-18" target="81hd7Qf_IjLM73w-Kz5m-44">
          <mxGeometry relative="1" as="geometry">
            <Array as="points">
              <mxPoint x="490" y="310" />
              <mxPoint x="490" y="30" />
              <mxPoint x="330" y="30" />
            </Array>
            <mxPoint x="359.9999999999998" y="200" as="targetPoint" />
          </mxGeometry>
        </mxCell>
        <mxCell id="81hd7Qf_IjLM73w-Kz5m-13" value="validate enroll/payment token with pub_key" style="edgeLabel;html=1;align=center;verticalAlign=middle;resizable=0;points=[];" connectable="0" vertex="1" parent="81hd7Qf_IjLM73w-Kz5m-12">
          <mxGeometry x="0.1862" y="-3" relative="1" as="geometry">
            <mxPoint x="-3" y="15" as="offset" />
          </mxGeometry>
        </mxCell>
        <mxCell id="81hd7Qf_IjLM73w-Kz5m-14" style="edgeStyle=orthogonalEdgeStyle;rounded=0;orthogonalLoop=1;jettySize=auto;html=1;entryX=0.5;entryY=0;entryDx=0;entryDy=0;strokeWidth=2;" edge="1" parent="1" source="81hd7Qf_IjLM73w-Kz5m-18" target="81hd7Qf_IjLM73w-Kz5m-34">
          <mxGeometry relative="1" as="geometry">
            <Array as="points">
              <mxPoint x="730" y="410" />
              <mxPoint x="500" y="410" />
            </Array>
          </mxGeometry>
        </mxCell>
        <mxCell id="81hd7Qf_IjLM73w-Kz5m-15" value="&amp;nbsp;exchange reference id for card data&amp;nbsp;" style="edgeLabel;html=1;align=center;verticalAlign=middle;resizable=0;points=[];" connectable="0" vertex="1" parent="81hd7Qf_IjLM73w-Kz5m-14">
          <mxGeometry x="-0.2533" y="-1" relative="1" as="geometry">
            <mxPoint x="-29" as="offset" />
          </mxGeometry>
        </mxCell>
        <mxCell id="81hd7Qf_IjLM73w-Kz5m-16" style="edgeStyle=orthogonalEdgeStyle;rounded=0;orthogonalLoop=1;jettySize=auto;html=1;strokeWidth=2;" edge="1" parent="1" source="81hd7Qf_IjLM73w-Kz5m-18" target="81hd7Qf_IjLM73w-Kz5m-33">
          <mxGeometry relative="1" as="geometry">
            <Array as="points">
              <mxPoint x="760" y="440" />
              <mxPoint x="640" y="440" />
            </Array>
          </mxGeometry>
        </mxCell>
        <mxCell id="81hd7Qf_IjLM73w-Kz5m-17" value="&amp;nbsp;process payment&amp;nbsp;" style="edgeLabel;html=1;align=center;verticalAlign=middle;resizable=0;points=[];" connectable="0" vertex="1" parent="81hd7Qf_IjLM73w-Kz5m-16">
          <mxGeometry y="1" relative="1" as="geometry">
            <mxPoint x="-20" as="offset" />
          </mxGeometry>
        </mxCell>
        <mxCell id="81hd7Qf_IjLM73w-Kz5m-18" value="wlp-core" style="rounded=0;whiteSpace=wrap;html=1;fillColor=#A9C4EB;strokeColor=#7EA6E0;" vertex="1" parent="1">
          <mxGeometry x="680" y="300" width="120" height="60" as="geometry" />
        </mxCell>
        <mxCell id="81hd7Qf_IjLM73w-Kz5m-23" value="&lt;div&gt;subject,&lt;/div&gt;&lt;div&gt;&lt;br&gt;&lt;/div&gt;reference id&lt;br&gt;(&lt;span style=&quot;background-color: initial;&quot;&gt;payment means id),&lt;/span&gt;&lt;br&gt;&lt;div&gt;&lt;br&gt;&lt;/div&gt;&lt;div&gt;mandate,&lt;/div&gt;&lt;div&gt;&lt;br&gt;&lt;/div&gt;&lt;div&gt;enrollment/payment token&lt;/div&gt;" style="shape=cylinder3;whiteSpace=wrap;html=1;boundedLbl=1;backgroundOutline=1;size=15;" vertex="1" parent="1">
          <mxGeometry x="224" y="429" width="152" height="197" as="geometry" />
        </mxCell>
        <mxCell id="81hd7Qf_IjLM73w-Kz5m-33" value="&lt;div&gt;Transaction Engine&lt;/div&gt;" style="rounded=0;whiteSpace=wrap;html=1;fillColor=#fff2cc;strokeColor=#d6b656;" vertex="1" parent="1">
          <mxGeometry x="580" y="480" width="120" height="60" as="geometry" />
        </mxCell>
        <mxCell id="81hd7Qf_IjLM73w-Kz5m-34" value="Storage Vault&lt;br&gt;(CDE)" style="rounded=0;whiteSpace=wrap;html=1;fillColor=#fff2cc;strokeColor=#d6b656;" vertex="1" parent="1">
          <mxGeometry x="440" y="480" width="120" height="60" as="geometry" />
        </mxCell>
        <mxCell id="81hd7Qf_IjLM73w-Kz5m-43" value="&lt;div&gt;Web shop&lt;/div&gt;" style="rounded=0;whiteSpace=wrap;html=1;fillColor=#f8cecc;strokeColor=#b85450;" vertex="1" parent="1">
          <mxGeometry x="680" y="-80" width="120" height="60" as="geometry" />
        </mxCell>
        <mxCell id="81hd7Qf_IjLM73w-Kz5m-44" value="Identity manager" style="rounded=0;whiteSpace=wrap;html=1;fillColor=#f8cecc;strokeColor=#b85450;" vertex="1" parent="1">
          <mxGeometry x="240" y="-80" width="120" height="60" as="geometry" />
        </mxCell>
        <mxCell id="81hd7Qf_IjLM73w-Kz5m-45" value="" style="endArrow=classic;startArrow=classic;html=1;rounded=0;entryX=0;entryY=0.5;entryDx=0;entryDy=0;exitX=1;exitY=0.5;exitDx=0;exitDy=0;" edge="1" parent="1" source="81hd7Qf_IjLM73w-Kz5m-44" target="81hd7Qf_IjLM73w-Kz5m-43">
          <mxGeometry width="50" height="50" relative="1" as="geometry">
            <mxPoint x="340" y="270" as="sourcePoint" />
            <mxPoint x="390" y="220" as="targetPoint" />
          </mxGeometry>
        </mxCell>
        <mxCell id="81hd7Qf_IjLM73w-Kz5m-47" value="" style="endArrow=classic;html=1;rounded=0;exitX=0.75;exitY=0;exitDx=0;exitDy=0;entryX=0.333;entryY=1;entryDx=0;entryDy=0;entryPerimeter=0;" edge="1" parent="1" source="81hd7Qf_IjLM73w-Kz5m-9" target="81hd7Qf_IjLM73w-Kz5m-43">
          <mxGeometry width="50" height="50" relative="1" as="geometry">
            <mxPoint x="340" y="270" as="sourcePoint" />
            <mxPoint x="390" y="220" as="targetPoint" />
            <Array as="points">
              <mxPoint x="330" y="260" />
              <mxPoint x="720" y="260" />
            </Array>
          </mxGeometry>
        </mxCell>
        <mxCell id="81hd7Qf_IjLM73w-Kz5m-48" value="" style="endArrow=classic;html=1;rounded=0;entryX=0.557;entryY=0.019;entryDx=0;entryDy=0;entryPerimeter=0;exitX=0.564;exitY=1.019;exitDx=0;exitDy=0;exitPerimeter=0;" edge="1" parent="1" source="81hd7Qf_IjLM73w-Kz5m-43" target="81hd7Qf_IjLM73w-Kz5m-18">
          <mxGeometry width="50" height="50" relative="1" as="geometry">
            <mxPoint x="340" y="270" as="sourcePoint" />
            <mxPoint x="390" y="220" as="targetPoint" />
          </mxGeometry>
        </mxCell>
      </root>
    </mxGraphModel>
  </diagram>
  <diagram id="temBA1yc2tel0cO0fS_p" name="Page-3">
    <mxGraphModel grid="1" page="1" gridSize="10" guides="1" tooltips="1" connect="1" arrows="1" fold="1" pageScale="1" pageWidth="850" pageHeight="1100" math="0" shadow="0">
      <root>
        <mxCell id="0" />
        <mxCell id="1" parent="0" />
        <mxCell id="w29KSA3JK-p9QhZtRML--1" value="" style="whiteSpace=wrap;html=1;aspect=fixed;dashed=1;fillColor=none;" vertex="1" parent="1">
          <mxGeometry x="627" y="83" width="197" height="197" as="geometry" />
        </mxCell>
        <mxCell id="w29KSA3JK-p9QhZtRML--2" value="" style="whiteSpace=wrap;html=1;aspect=fixed;dashed=1;fillColor=none;" vertex="1" parent="1">
          <mxGeometry x="850" y="83" width="197" height="197" as="geometry" />
        </mxCell>
        <mxCell id="w29KSA3JK-p9QhZtRML--3" style="edgeStyle=orthogonalEdgeStyle;rounded=0;orthogonalLoop=1;jettySize=auto;html=1;entryX=0.5;entryY=1;entryDx=0;entryDy=0;entryPerimeter=0;strokeWidth=2;" edge="1" parent="1" source="w29KSA3JK-p9QhZtRML--4" target="w29KSA3JK-p9QhZtRML--22">
          <mxGeometry relative="1" as="geometry" />
        </mxCell>
        <mxCell id="w29KSA3JK-p9QhZtRML--4" value="wlp-identity" style="rounded=0;whiteSpace=wrap;html=1;fillColor=#a20025;strokeColor=#6F0000;fontColor=#ffffff;" vertex="1" parent="1">
          <mxGeometry x="240" y="170" width="120" height="60" as="geometry" />
        </mxCell>
        <mxCell id="w29KSA3JK-p9QhZtRML--5" style="edgeStyle=orthogonalEdgeStyle;rounded=0;orthogonalLoop=1;jettySize=auto;html=1;entryX=0.5;entryY=0;entryDx=0;entryDy=0;entryPerimeter=0;strokeWidth=2;" edge="1" parent="1" source="w29KSA3JK-p9QhZtRML--9" target="w29KSA3JK-p9QhZtRML--23">
          <mxGeometry relative="1" as="geometry" />
        </mxCell>
        <mxCell id="w29KSA3JK-p9QhZtRML--6" style="edgeStyle=orthogonalEdgeStyle;rounded=0;orthogonalLoop=1;jettySize=auto;html=1;entryX=0.5;entryY=1;entryDx=0;entryDy=0;strokeWidth=2;" edge="1" parent="1" source="w29KSA3JK-p9QhZtRML--9" target="w29KSA3JK-p9QhZtRML--4">
          <mxGeometry relative="1" as="geometry" />
        </mxCell>
        <mxCell id="w29KSA3JK-p9QhZtRML--7" value="validate auth token" style="edgeLabel;html=1;align=center;verticalAlign=middle;resizable=0;points=[];" connectable="0" vertex="1" parent="w29KSA3JK-p9QhZtRML--6">
          <mxGeometry x="-0.1714" y="3" relative="1" as="geometry">
            <mxPoint as="offset" />
          </mxGeometry>
        </mxCell>
        <mxCell id="w29KSA3JK-p9QhZtRML--8" style="edgeStyle=orthogonalEdgeStyle;rounded=0;orthogonalLoop=1;jettySize=auto;html=1;entryX=0;entryY=0.5;entryDx=0;entryDy=0;" edge="1" parent="1" source="w29KSA3JK-p9QhZtRML--9" target="w29KSA3JK-p9QhZtRML--18">
          <mxGeometry relative="1" as="geometry" />
        </mxCell>
        <mxCell id="w29KSA3JK-p9QhZtRML--45" style="edgeStyle=orthogonalEdgeStyle;rounded=0;orthogonalLoop=1;jettySize=auto;html=1;exitX=0.5;exitY=0;exitDx=0;exitDy=0;entryX=0.5;entryY=1;entryDx=0;entryDy=0;" edge="1" parent="1" source="w29KSA3JK-p9QhZtRML--9" target="w29KSA3JK-p9QhZtRML--43">
          <mxGeometry relative="1" as="geometry">
            <Array as="points">
              <mxPoint x="300" y="250" />
              <mxPoint x="510" y="250" />
            </Array>
          </mxGeometry>
        </mxCell>
        <mxCell id="w29KSA3JK-p9QhZtRML--9" value="wlp-registration" style="rounded=0;whiteSpace=wrap;html=1;fillColor=#A9C4EB;strokeColor=#7EA6E0;" vertex="1" parent="1">
          <mxGeometry x="240" y="300" width="120" height="60" as="geometry" />
        </mxCell>
        <mxCell id="w29KSA3JK-p9QhZtRML--10" style="edgeStyle=orthogonalEdgeStyle;rounded=0;orthogonalLoop=1;jettySize=auto;html=1;strokeWidth=2;" edge="1" parent="1" source="w29KSA3JK-p9QhZtRML--18" target="w29KSA3JK-p9QhZtRML--9">
          <mxGeometry relative="1" as="geometry" />
        </mxCell>
        <mxCell id="w29KSA3JK-p9QhZtRML--11" value="&amp;nbsp;create payment means&amp;nbsp;" style="edgeLabel;html=1;align=center;verticalAlign=middle;resizable=0;points=[];" connectable="0" vertex="1" parent="w29KSA3JK-p9QhZtRML--10">
          <mxGeometry x="-0.0222" y="2" relative="1" as="geometry">
            <mxPoint as="offset" />
          </mxGeometry>
        </mxCell>
        <mxCell id="w29KSA3JK-p9QhZtRML--12" style="edgeStyle=orthogonalEdgeStyle;rounded=0;orthogonalLoop=1;jettySize=auto;html=1;entryX=1;entryY=0.5;entryDx=0;entryDy=0;strokeWidth=2;" edge="1" parent="1" source="w29KSA3JK-p9QhZtRML--18" target="w29KSA3JK-p9QhZtRML--4">
          <mxGeometry relative="1" as="geometry">
            <Array as="points">
              <mxPoint x="490" y="310" />
              <mxPoint x="490" y="200" />
            </Array>
          </mxGeometry>
        </mxCell>
        <mxCell id="w29KSA3JK-p9QhZtRML--13" value="validate enroll/payment token with pub_key" style="edgeLabel;html=1;align=center;verticalAlign=middle;resizable=0;points=[];" connectable="0" vertex="1" parent="w29KSA3JK-p9QhZtRML--12">
          <mxGeometry x="0.1862" y="-3" relative="1" as="geometry">
            <mxPoint x="-3" y="15" as="offset" />
          </mxGeometry>
        </mxCell>
        <mxCell id="w29KSA3JK-p9QhZtRML--14" style="edgeStyle=orthogonalEdgeStyle;rounded=0;orthogonalLoop=1;jettySize=auto;html=1;entryX=0.5;entryY=0;entryDx=0;entryDy=0;strokeWidth=2;" edge="1" parent="1" source="w29KSA3JK-p9QhZtRML--18" target="w29KSA3JK-p9QhZtRML--34">
          <mxGeometry relative="1" as="geometry">
            <Array as="points">
              <mxPoint x="730" y="410" />
              <mxPoint x="500" y="410" />
            </Array>
          </mxGeometry>
        </mxCell>
        <mxCell id="w29KSA3JK-p9QhZtRML--15" value="&amp;nbsp;exchange reference id for card data&amp;nbsp;" style="edgeLabel;html=1;align=center;verticalAlign=middle;resizable=0;points=[];" connectable="0" vertex="1" parent="w29KSA3JK-p9QhZtRML--14">
          <mxGeometry x="-0.2533" y="-1" relative="1" as="geometry">
            <mxPoint x="-29" as="offset" />
          </mxGeometry>
        </mxCell>
        <mxCell id="w29KSA3JK-p9QhZtRML--16" style="edgeStyle=orthogonalEdgeStyle;rounded=0;orthogonalLoop=1;jettySize=auto;html=1;strokeWidth=2;" edge="1" parent="1" source="w29KSA3JK-p9QhZtRML--18" target="w29KSA3JK-p9QhZtRML--33">
          <mxGeometry relative="1" as="geometry">
            <Array as="points">
              <mxPoint x="760" y="440" />
              <mxPoint x="640" y="440" />
            </Array>
          </mxGeometry>
        </mxCell>
        <mxCell id="w29KSA3JK-p9QhZtRML--17" value="&amp;nbsp;process payment&amp;nbsp;" style="edgeLabel;html=1;align=center;verticalAlign=middle;resizable=0;points=[];" connectable="0" vertex="1" parent="w29KSA3JK-p9QhZtRML--16">
          <mxGeometry y="1" relative="1" as="geometry">
            <mxPoint x="-20" as="offset" />
          </mxGeometry>
        </mxCell>
        <mxCell id="w29KSA3JK-p9QhZtRML--18" value="wlp-core" style="rounded=0;whiteSpace=wrap;html=1;fillColor=#A9C4EB;strokeColor=#7EA6E0;" vertex="1" parent="1">
          <mxGeometry x="680" y="300" width="120" height="60" as="geometry" />
        </mxCell>
        <mxCell id="w29KSA3JK-p9QhZtRML--19" style="edgeStyle=orthogonalEdgeStyle;rounded=0;orthogonalLoop=1;jettySize=auto;html=1;strokeWidth=2;" edge="1" parent="1" source="w29KSA3JK-p9QhZtRML--21" target="w29KSA3JK-p9QhZtRML--18">
          <mxGeometry relative="1" as="geometry" />
        </mxCell>
        <mxCell id="w29KSA3JK-p9QhZtRML--20" value="complete registration/payment" style="edgeLabel;html=1;align=center;verticalAlign=middle;resizable=0;points=[];" connectable="0" vertex="1" parent="w29KSA3JK-p9QhZtRML--19">
          <mxGeometry x="0.0286" y="-2" relative="1" as="geometry">
            <mxPoint y="-6" as="offset" />
          </mxGeometry>
        </mxCell>
        <mxCell id="w29KSA3JK-p9QhZtRML--21" value="wlp-gateway" style="rounded=0;whiteSpace=wrap;html=1;fillColor=#a20025;strokeColor=#6F0000;fontColor=#ffffff;" vertex="1" parent="1">
          <mxGeometry x="680" y="170" width="120" height="60" as="geometry" />
        </mxCell>
        <mxCell id="w29KSA3JK-p9QhZtRML--22" value="device pub_key" style="shape=cylinder3;whiteSpace=wrap;html=1;boundedLbl=1;backgroundOutline=1;size=15;" vertex="1" parent="1">
          <mxGeometry x="270" y="31" width="60" height="80" as="geometry" />
        </mxCell>
        <mxCell id="w29KSA3JK-p9QhZtRML--23" value="&lt;div&gt;subject,&lt;/div&gt;&lt;div&gt;&lt;br&gt;&lt;/div&gt;reference id&lt;br&gt;(&lt;span style=&quot;background-color: initial;&quot;&gt;payment means id),&lt;/span&gt;&lt;br&gt;&lt;div&gt;&lt;br&gt;&lt;/div&gt;&lt;div&gt;mandate,&lt;/div&gt;&lt;div&gt;&lt;br&gt;&lt;/div&gt;&lt;div&gt;enrollment/payment token&lt;/div&gt;" style="shape=cylinder3;whiteSpace=wrap;html=1;boundedLbl=1;backgroundOutline=1;size=15;" vertex="1" parent="1">
          <mxGeometry x="224" y="429" width="152" height="197" as="geometry" />
        </mxCell>
        <mxCell id="w29KSA3JK-p9QhZtRML--24" value="" style="endArrow=classic;startArrow=classic;html=1;rounded=0;entryX=0;entryY=0.75;entryDx=0;entryDy=0;strokeWidth=2;exitX=0.999;exitY=0.393;exitDx=0;exitDy=0;exitPerimeter=0;" edge="1" parent="1" source="w29KSA3JK-p9QhZtRML--35" target="w29KSA3JK-p9QhZtRML--4">
          <mxGeometry width="50" height="50" relative="1" as="geometry">
            <mxPoint x="60" y="200" as="sourcePoint" />
            <mxPoint x="340" y="380" as="targetPoint" />
          </mxGeometry>
        </mxCell>
        <mxCell id="w29KSA3JK-p9QhZtRML--25" value="&amp;nbsp;fetch auth token&amp;nbsp;" style="edgeLabel;html=1;align=center;verticalAlign=middle;resizable=0;points=[];" connectable="0" vertex="1" parent="w29KSA3JK-p9QhZtRML--24">
          <mxGeometry y="-4" relative="1" as="geometry">
            <mxPoint as="offset" />
          </mxGeometry>
        </mxCell>
        <mxCell id="w29KSA3JK-p9QhZtRML--26" value="" style="endArrow=classic;startArrow=classic;html=1;rounded=0;entryX=0;entryY=0.5;entryDx=0;entryDy=0;strokeWidth=2;exitX=0.994;exitY=0.929;exitDx=0;exitDy=0;exitPerimeter=0;" edge="1" parent="1" source="w29KSA3JK-p9QhZtRML--35">
          <mxGeometry width="50" height="50" relative="1" as="geometry">
            <mxPoint x="60" y="330" as="sourcePoint" />
            <mxPoint x="240" y="330" as="targetPoint" />
          </mxGeometry>
        </mxCell>
        <mxCell id="w29KSA3JK-p9QhZtRML--27" value="pass auth token&lt;br&gt;fetch enroll/payment token" style="edgeLabel;html=1;align=center;verticalAlign=middle;resizable=0;points=[];" connectable="0" vertex="1" parent="w29KSA3JK-p9QhZtRML--26">
          <mxGeometry y="-4" relative="1" as="geometry">
            <mxPoint as="offset" />
          </mxGeometry>
        </mxCell>
        <mxCell id="w29KSA3JK-p9QhZtRML--28" style="edgeStyle=orthogonalEdgeStyle;rounded=0;orthogonalLoop=1;jettySize=auto;html=1;entryX=1;entryY=0.5;entryDx=0;entryDy=0;strokeWidth=2;dashed=1;" edge="1" parent="1" source="w29KSA3JK-p9QhZtRML--30" target="w29KSA3JK-p9QhZtRML--18">
          <mxGeometry relative="1" as="geometry">
            <Array as="points">
              <mxPoint x="940" y="330" />
            </Array>
          </mxGeometry>
        </mxCell>
        <mxCell id="w29KSA3JK-p9QhZtRML--29" value="complete registration/payment" style="edgeLabel;html=1;align=center;verticalAlign=middle;resizable=0;points=[];" connectable="0" vertex="1" parent="w29KSA3JK-p9QhZtRML--28">
          <mxGeometry x="-0.5182" y="-3" relative="1" as="geometry">
            <mxPoint y="-28" as="offset" />
          </mxGeometry>
        </mxCell>
        <mxCell id="w29KSA3JK-p9QhZtRML--30" value="cashdesk" style="rounded=0;whiteSpace=wrap;html=1;fillColor=#f8cecc;strokeColor=#b85450;" vertex="1" parent="1">
          <mxGeometry x="880" y="170" width="120" height="60" as="geometry" />
        </mxCell>
        <mxCell id="w29KSA3JK-p9QhZtRML--31" value="Use case GICC - Enrollment/Payment" style="text;html=1;strokeColor=none;fillColor=none;align=center;verticalAlign=middle;whiteSpace=wrap;rounded=0;" vertex="1" parent="1">
          <mxGeometry x="656" y="98" width="60" height="30" as="geometry" />
        </mxCell>
        <mxCell id="w29KSA3JK-p9QhZtRML--32" value="Use case REST - Enrollment/Payment" style="text;html=1;strokeColor=none;fillColor=none;align=center;verticalAlign=middle;whiteSpace=wrap;rounded=0;" vertex="1" parent="1">
          <mxGeometry x="953" y="98" width="60" height="30" as="geometry" />
        </mxCell>
        <mxCell id="w29KSA3JK-p9QhZtRML--33" value="&lt;div&gt;Transaction Engine&lt;/div&gt;" style="rounded=0;whiteSpace=wrap;html=1;fillColor=#fff2cc;strokeColor=#d6b656;" vertex="1" parent="1">
          <mxGeometry x="580" y="480" width="120" height="60" as="geometry" />
        </mxCell>
        <mxCell id="w29KSA3JK-p9QhZtRML--34" value="Storage Vault&lt;br&gt;(CDE)" style="rounded=0;whiteSpace=wrap;html=1;fillColor=#fff2cc;strokeColor=#d6b656;" vertex="1" parent="1">
          <mxGeometry x="440" y="480" width="120" height="60" as="geometry" />
        </mxCell>
        <mxCell id="w29KSA3JK-p9QhZtRML--35" value="wlp-sdk" style="rounded=0;whiteSpace=wrap;html=1;fillColor=#a20025;strokeColor=#6F0000;fontColor=#ffffff;" vertex="1" parent="1">
          <mxGeometry x="-38" y="130" width="65" height="216" as="geometry" />
        </mxCell>
        <mxCell id="w29KSA3JK-p9QhZtRML--36" style="edgeStyle=orthogonalEdgeStyle;rounded=0;orthogonalLoop=1;jettySize=auto;html=1;exitX=0.75;exitY=0;exitDx=0;exitDy=0;entryX=0;entryY=0.25;entryDx=0;entryDy=0;strokeWidth=2;" edge="1" parent="1" source="w29KSA3JK-p9QhZtRML--35" target="w29KSA3JK-p9QhZtRML--35">
          <mxGeometry relative="1" as="geometry">
            <Array as="points">
              <mxPoint x="-123" y="88" />
              <mxPoint x="-123" y="184" />
            </Array>
          </mxGeometry>
        </mxCell>
        <mxCell id="w29KSA3JK-p9QhZtRML--37" value="&amp;nbsp;Calculate pub/sec key pair&amp;nbsp;" style="edgeLabel;html=1;align=center;verticalAlign=middle;resizable=0;points=[];" connectable="0" vertex="1" parent="w29KSA3JK-p9QhZtRML--36">
          <mxGeometry x="-0.4954" y="-1" relative="1" as="geometry">
            <mxPoint as="offset" />
          </mxGeometry>
        </mxCell>
        <mxCell id="w29KSA3JK-p9QhZtRML--38" value="" style="endArrow=classic;html=1;rounded=0;entryX=-0.008;entryY=0.105;entryDx=0;entryDy=0;entryPerimeter=0;strokeWidth=2;exitX=0.985;exitY=0.208;exitDx=0;exitDy=0;exitPerimeter=0;" edge="1" parent="1" source="w29KSA3JK-p9QhZtRML--35" target="w29KSA3JK-p9QhZtRML--4">
          <mxGeometry width="50" height="50" relative="1" as="geometry">
            <mxPoint x="62" y="176" as="sourcePoint" />
            <mxPoint x="94" y="75" as="targetPoint" />
          </mxGeometry>
        </mxCell>
        <mxCell id="w29KSA3JK-p9QhZtRML--39" value="&amp;nbsp;register pub_key&amp;nbsp;" style="edgeLabel;html=1;align=center;verticalAlign=middle;resizable=0;points=[];" connectable="0" vertex="1" parent="w29KSA3JK-p9QhZtRML--38">
          <mxGeometry x="-0.1207" relative="1" as="geometry">
            <mxPoint as="offset" />
          </mxGeometry>
        </mxCell>
        <mxCell id="w29KSA3JK-p9QhZtRML--40" style="edgeStyle=orthogonalEdgeStyle;rounded=0;orthogonalLoop=1;jettySize=auto;html=1;entryX=0.75;entryY=0;entryDx=0;entryDy=0;strokeWidth=2;" edge="1" parent="1" source="w29KSA3JK-p9QhZtRML--41" target="w29KSA3JK-p9QhZtRML--21">
          <mxGeometry relative="1" as="geometry" />
        </mxCell>
        <mxCell id="w29KSA3JK-p9QhZtRML--41" value="Host&lt;br&gt;(Poseidon)" style="rounded=0;whiteSpace=wrap;html=1;fillColor=#f8cecc;strokeColor=#b85450;" vertex="1" parent="1">
          <mxGeometry x="680" y="-8" width="120" height="60" as="geometry" />
        </mxCell>
        <mxCell id="w29KSA3JK-p9QhZtRML--43" value="shop-idenity" style="rounded=0;whiteSpace=wrap;html=1;fillColor=#e1d5e7;strokeColor=#9673a6;" vertex="1" parent="1">
          <mxGeometry x="450" y="-40" width="120" height="60" as="geometry" />
        </mxCell>
        <mxCell id="w29KSA3JK-p9QhZtRML--46" style="edgeStyle=orthogonalEdgeStyle;rounded=0;orthogonalLoop=1;jettySize=auto;html=1;entryX=0.5;entryY=0;entryDx=0;entryDy=0;" edge="1" parent="1" source="w29KSA3JK-p9QhZtRML--44" target="w29KSA3JK-p9QhZtRML--43">
          <mxGeometry relative="1" as="geometry" />
        </mxCell>
        <mxCell id="w29KSA3JK-p9QhZtRML--47" style="edgeStyle=orthogonalEdgeStyle;rounded=0;orthogonalLoop=1;jettySize=auto;html=1;entryX=0;entryY=0.25;entryDx=0;entryDy=0;" edge="1" parent="1" source="w29KSA3JK-p9QhZtRML--44" target="w29KSA3JK-p9QhZtRML--9">
          <mxGeometry relative="1" as="geometry" />
        </mxCell>
        <mxCell id="w29KSA3JK-p9QhZtRML--48" style="edgeStyle=orthogonalEdgeStyle;rounded=0;orthogonalLoop=1;jettySize=auto;html=1;entryX=0;entryY=0.75;entryDx=0;entryDy=0;" edge="1" parent="1" source="w29KSA3JK-p9QhZtRML--44" target="w29KSA3JK-p9QhZtRML--18">
          <mxGeometry relative="1" as="geometry">
            <Array as="points">
              <mxPoint x="610" y="-120" />
              <mxPoint x="610" y="345" />
            </Array>
          </mxGeometry>
        </mxCell>
        <mxCell id="w29KSA3JK-p9QhZtRML--44" value="shop ui" style="rounded=0;whiteSpace=wrap;html=1;fillColor=#e1d5e7;strokeColor=#9673a6;" vertex="1" parent="1">
          <mxGeometry x="450" y="-150" width="120" height="60" as="geometry" />
        </mxCell>
        <mxCell id="qxDzLYgWQySD9BPfhYgb-1" value="" style="endArrow=classic;html=1;rounded=0;entryX=0.7;entryY=1.068;entryDx=0;entryDy=0;entryPerimeter=0;exitX=-0.002;exitY=0.354;exitDx=0;exitDy=0;exitPerimeter=0;" edge="1" parent="1" source="w29KSA3JK-p9QhZtRML--18" target="w29KSA3JK-p9QhZtRML--43">
          <mxGeometry width="50" height="50" relative="1" as="geometry">
            <mxPoint x="480" y="240" as="sourcePoint" />
            <mxPoint x="530" y="190" as="targetPoint" />
            <Array as="points">
              <mxPoint x="534" y="320" />
            </Array>
          </mxGeometry>
        </mxCell>
      </root>
    </mxGraphModel>
  </diagram>
  <diagram id="4QZyGJ_iubIGAUSsgWoN" name="Page-4">
    <mxGraphModel grid="1" page="1" gridSize="10" guides="1" tooltips="1" connect="1" arrows="1" fold="1" pageScale="1" pageWidth="850" pageHeight="1100" math="0" shadow="0">
      <root>
        <mxCell id="0" />
        <mxCell id="1" parent="0" />
        <mxCell id="p_basjyfW4By0MEy0A7S-59" value="&lt;font style=&quot;font-size: 400px;&quot;&gt;FUTURE&lt;/font&gt;" style="text;html=1;align=center;verticalAlign=middle;resizable=0;points=[];autosize=1;strokeColor=none;fillColor=none;dashed=1;" vertex="1" parent="1">
          <mxGeometry x="-270" y="31" width="1650" height="490" as="geometry" />
        </mxCell>
        <mxCell id="p_basjyfW4By0MEy0A7S-1" value="" style="whiteSpace=wrap;html=1;aspect=fixed;dashed=1;fillColor=none;" vertex="1" parent="1">
          <mxGeometry x="627" y="83" width="197" height="197" as="geometry" />
        </mxCell>
        <mxCell id="p_basjyfW4By0MEy0A7S-2" value="" style="whiteSpace=wrap;html=1;aspect=fixed;dashed=1;fillColor=none;" vertex="1" parent="1">
          <mxGeometry x="850" y="83" width="197" height="197" as="geometry" />
        </mxCell>
        <mxCell id="p_basjyfW4By0MEy0A7S-3" style="edgeStyle=orthogonalEdgeStyle;rounded=0;orthogonalLoop=1;jettySize=auto;html=1;entryX=0.5;entryY=1;entryDx=0;entryDy=0;entryPerimeter=0;strokeWidth=2;" edge="1" parent="1" source="p_basjyfW4By0MEy0A7S-4" target="p_basjyfW4By0MEy0A7S-22">
          <mxGeometry relative="1" as="geometry" />
        </mxCell>
        <mxCell id="p_basjyfW4By0MEy0A7S-4" value="wlp-identity" style="rounded=0;whiteSpace=wrap;html=1;fillColor=#A9C4EB;strokeColor=#7EA6E0;" vertex="1" parent="1">
          <mxGeometry x="240" y="170" width="120" height="60" as="geometry" />
        </mxCell>
        <mxCell id="p_basjyfW4By0MEy0A7S-5" style="edgeStyle=orthogonalEdgeStyle;rounded=0;orthogonalLoop=1;jettySize=auto;html=1;entryX=0.5;entryY=0;entryDx=0;entryDy=0;entryPerimeter=0;strokeWidth=2;" edge="1" parent="1" source="p_basjyfW4By0MEy0A7S-9" target="p_basjyfW4By0MEy0A7S-23">
          <mxGeometry relative="1" as="geometry" />
        </mxCell>
        <mxCell id="p_basjyfW4By0MEy0A7S-6" style="edgeStyle=orthogonalEdgeStyle;rounded=0;orthogonalLoop=1;jettySize=auto;html=1;entryX=0.5;entryY=1;entryDx=0;entryDy=0;strokeWidth=2;" edge="1" parent="1" source="p_basjyfW4By0MEy0A7S-9" target="p_basjyfW4By0MEy0A7S-4">
          <mxGeometry relative="1" as="geometry" />
        </mxCell>
        <mxCell id="p_basjyfW4By0MEy0A7S-7" value="validate auth token" style="edgeLabel;html=1;align=center;verticalAlign=middle;resizable=0;points=[];" connectable="0" vertex="1" parent="p_basjyfW4By0MEy0A7S-6">
          <mxGeometry x="-0.1714" y="3" relative="1" as="geometry">
            <mxPoint as="offset" />
          </mxGeometry>
        </mxCell>
        <mxCell id="p_basjyfW4By0MEy0A7S-8" style="edgeStyle=orthogonalEdgeStyle;rounded=0;orthogonalLoop=1;jettySize=auto;html=1;entryX=0;entryY=0.5;entryDx=0;entryDy=0;" edge="1" parent="1" source="p_basjyfW4By0MEy0A7S-9" target="p_basjyfW4By0MEy0A7S-18">
          <mxGeometry relative="1" as="geometry" />
        </mxCell>
        <mxCell id="p_basjyfW4By0MEy0A7S-9" value="wlp-registration" style="rounded=0;whiteSpace=wrap;html=1;fillColor=#A9C4EB;strokeColor=#7EA6E0;" vertex="1" parent="1">
          <mxGeometry x="240" y="300" width="120" height="60" as="geometry" />
        </mxCell>
        <mxCell id="p_basjyfW4By0MEy0A7S-10" style="edgeStyle=orthogonalEdgeStyle;rounded=0;orthogonalLoop=1;jettySize=auto;html=1;strokeWidth=2;" edge="1" parent="1" source="p_basjyfW4By0MEy0A7S-18" target="p_basjyfW4By0MEy0A7S-9">
          <mxGeometry relative="1" as="geometry" />
        </mxCell>
        <mxCell id="p_basjyfW4By0MEy0A7S-11" value="&amp;nbsp;create payment means&amp;nbsp;" style="edgeLabel;html=1;align=center;verticalAlign=middle;resizable=0;points=[];" connectable="0" vertex="1" parent="p_basjyfW4By0MEy0A7S-10">
          <mxGeometry x="-0.0222" y="2" relative="1" as="geometry">
            <mxPoint as="offset" />
          </mxGeometry>
        </mxCell>
        <mxCell id="p_basjyfW4By0MEy0A7S-12" style="edgeStyle=orthogonalEdgeStyle;rounded=0;orthogonalLoop=1;jettySize=auto;html=1;entryX=1;entryY=0.5;entryDx=0;entryDy=0;strokeWidth=2;" edge="1" parent="1" source="p_basjyfW4By0MEy0A7S-18" target="p_basjyfW4By0MEy0A7S-4">
          <mxGeometry relative="1" as="geometry">
            <Array as="points">
              <mxPoint x="490" y="310" />
              <mxPoint x="490" y="200" />
            </Array>
          </mxGeometry>
        </mxCell>
        <mxCell id="p_basjyfW4By0MEy0A7S-13" value="validate enroll/payment token with pub_key" style="edgeLabel;html=1;align=center;verticalAlign=middle;resizable=0;points=[];" connectable="0" vertex="1" parent="p_basjyfW4By0MEy0A7S-12">
          <mxGeometry x="0.1862" y="-3" relative="1" as="geometry">
            <mxPoint x="-3" y="15" as="offset" />
          </mxGeometry>
        </mxCell>
        <mxCell id="p_basjyfW4By0MEy0A7S-14" style="edgeStyle=orthogonalEdgeStyle;rounded=0;orthogonalLoop=1;jettySize=auto;html=1;entryX=0.5;entryY=0;entryDx=0;entryDy=0;strokeWidth=2;" edge="1" parent="1" source="p_basjyfW4By0MEy0A7S-18" target="p_basjyfW4By0MEy0A7S-34">
          <mxGeometry relative="1" as="geometry">
            <Array as="points">
              <mxPoint x="730" y="410" />
              <mxPoint x="500" y="410" />
            </Array>
          </mxGeometry>
        </mxCell>
        <mxCell id="p_basjyfW4By0MEy0A7S-15" value="&amp;nbsp;exchange reference id for card data&amp;nbsp;" style="edgeLabel;html=1;align=center;verticalAlign=middle;resizable=0;points=[];" connectable="0" vertex="1" parent="p_basjyfW4By0MEy0A7S-14">
          <mxGeometry x="-0.2533" y="-1" relative="1" as="geometry">
            <mxPoint x="-29" as="offset" />
          </mxGeometry>
        </mxCell>
        <mxCell id="p_basjyfW4By0MEy0A7S-16" style="edgeStyle=orthogonalEdgeStyle;rounded=0;orthogonalLoop=1;jettySize=auto;html=1;strokeWidth=2;" edge="1" parent="1" source="p_basjyfW4By0MEy0A7S-18" target="p_basjyfW4By0MEy0A7S-33">
          <mxGeometry relative="1" as="geometry">
            <Array as="points">
              <mxPoint x="760" y="440" />
              <mxPoint x="640" y="440" />
            </Array>
          </mxGeometry>
        </mxCell>
        <mxCell id="p_basjyfW4By0MEy0A7S-17" value="&amp;nbsp;process payment&amp;nbsp;" style="edgeLabel;html=1;align=center;verticalAlign=middle;resizable=0;points=[];" connectable="0" vertex="1" parent="p_basjyfW4By0MEy0A7S-16">
          <mxGeometry y="1" relative="1" as="geometry">
            <mxPoint x="-20" as="offset" />
          </mxGeometry>
        </mxCell>
        <mxCell id="p_basjyfW4By0MEy0A7S-51" style="edgeStyle=orthogonalEdgeStyle;rounded=0;orthogonalLoop=1;jettySize=auto;html=1;entryX=0.5;entryY=1;entryDx=0;entryDy=0;" edge="1" parent="1" source="p_basjyfW4By0MEy0A7S-18" target="p_basjyfW4By0MEy0A7S-49">
          <mxGeometry relative="1" as="geometry">
            <Array as="points">
              <mxPoint x="1139" y="340" />
            </Array>
          </mxGeometry>
        </mxCell>
        <mxCell id="p_basjyfW4By0MEy0A7S-18" value="wlp-core" style="rounded=0;whiteSpace=wrap;html=1;fillColor=#A9C4EB;strokeColor=#7EA6E0;" vertex="1" parent="1">
          <mxGeometry x="680" y="300" width="120" height="60" as="geometry" />
        </mxCell>
        <mxCell id="p_basjyfW4By0MEy0A7S-19" style="edgeStyle=orthogonalEdgeStyle;rounded=0;orthogonalLoop=1;jettySize=auto;html=1;strokeWidth=2;" edge="1" parent="1" source="p_basjyfW4By0MEy0A7S-21" target="p_basjyfW4By0MEy0A7S-18">
          <mxGeometry relative="1" as="geometry" />
        </mxCell>
        <mxCell id="p_basjyfW4By0MEy0A7S-20" value="complete registration/payment" style="edgeLabel;html=1;align=center;verticalAlign=middle;resizable=0;points=[];" connectable="0" vertex="1" parent="p_basjyfW4By0MEy0A7S-19">
          <mxGeometry x="0.0286" y="-2" relative="1" as="geometry">
            <mxPoint y="-6" as="offset" />
          </mxGeometry>
        </mxCell>
        <mxCell id="p_basjyfW4By0MEy0A7S-21" value="wlp-gateway" style="rounded=0;whiteSpace=wrap;html=1;fillColor=#A9C4EB;strokeColor=#7EA6E0;" vertex="1" parent="1">
          <mxGeometry x="680" y="170" width="120" height="60" as="geometry" />
        </mxCell>
        <mxCell id="p_basjyfW4By0MEy0A7S-22" value="device pub_key" style="shape=cylinder3;whiteSpace=wrap;html=1;boundedLbl=1;backgroundOutline=1;size=15;" vertex="1" parent="1">
          <mxGeometry x="270" y="31" width="60" height="80" as="geometry" />
        </mxCell>
        <mxCell id="p_basjyfW4By0MEy0A7S-23" value="&lt;div&gt;subject,&lt;/div&gt;&lt;div&gt;&lt;br&gt;&lt;/div&gt;reference id&lt;br&gt;(&lt;span style=&quot;background-color: initial;&quot;&gt;payment means id),&lt;/span&gt;&lt;br&gt;&lt;div&gt;&lt;br&gt;&lt;/div&gt;&lt;div&gt;mandate,&lt;/div&gt;&lt;div&gt;&lt;br&gt;&lt;/div&gt;&lt;div&gt;enrollment/payment token&lt;/div&gt;" style="shape=cylinder3;whiteSpace=wrap;html=1;boundedLbl=1;backgroundOutline=1;size=15;" vertex="1" parent="1">
          <mxGeometry x="237" y="410" width="126" height="151" as="geometry" />
        </mxCell>
        <mxCell id="p_basjyfW4By0MEy0A7S-24" value="" style="endArrow=classic;startArrow=classic;html=1;rounded=0;entryX=0;entryY=0.75;entryDx=0;entryDy=0;strokeWidth=2;exitX=0.999;exitY=0.393;exitDx=0;exitDy=0;exitPerimeter=0;" edge="1" parent="1" source="p_basjyfW4By0MEy0A7S-35" target="p_basjyfW4By0MEy0A7S-4">
          <mxGeometry width="50" height="50" relative="1" as="geometry">
            <mxPoint x="60" y="200" as="sourcePoint" />
            <mxPoint x="340" y="380" as="targetPoint" />
          </mxGeometry>
        </mxCell>
        <mxCell id="p_basjyfW4By0MEy0A7S-25" value="&amp;nbsp;fetch auth token&amp;nbsp;" style="edgeLabel;html=1;align=center;verticalAlign=middle;resizable=0;points=[];" connectable="0" vertex="1" parent="p_basjyfW4By0MEy0A7S-24">
          <mxGeometry y="-4" relative="1" as="geometry">
            <mxPoint as="offset" />
          </mxGeometry>
        </mxCell>
        <mxCell id="p_basjyfW4By0MEy0A7S-26" value="" style="endArrow=classic;startArrow=classic;html=1;rounded=0;entryX=0;entryY=0.5;entryDx=0;entryDy=0;strokeWidth=2;exitX=0.994;exitY=0.929;exitDx=0;exitDy=0;exitPerimeter=0;" edge="1" parent="1" source="p_basjyfW4By0MEy0A7S-35">
          <mxGeometry width="50" height="50" relative="1" as="geometry">
            <mxPoint x="60" y="330" as="sourcePoint" />
            <mxPoint x="240" y="330" as="targetPoint" />
          </mxGeometry>
        </mxCell>
        <mxCell id="p_basjyfW4By0MEy0A7S-27" value="pass auth token&lt;br&gt;fetch enroll/payment token" style="edgeLabel;html=1;align=center;verticalAlign=middle;resizable=0;points=[];" connectable="0" vertex="1" parent="p_basjyfW4By0MEy0A7S-26">
          <mxGeometry y="-4" relative="1" as="geometry">
            <mxPoint as="offset" />
          </mxGeometry>
        </mxCell>
        <mxCell id="p_basjyfW4By0MEy0A7S-28" style="edgeStyle=orthogonalEdgeStyle;rounded=0;orthogonalLoop=1;jettySize=auto;html=1;strokeWidth=2;dashed=1;" edge="1" parent="1" source="p_basjyfW4By0MEy0A7S-30">
          <mxGeometry relative="1" as="geometry">
            <Array as="points">
              <mxPoint x="940" y="320" />
              <mxPoint x="800" y="320" />
            </Array>
            <mxPoint x="800" y="320" as="targetPoint" />
          </mxGeometry>
        </mxCell>
        <mxCell id="p_basjyfW4By0MEy0A7S-29" value="complete registration/payment" style="edgeLabel;html=1;align=center;verticalAlign=middle;resizable=0;points=[];" connectable="0" vertex="1" parent="p_basjyfW4By0MEy0A7S-28">
          <mxGeometry x="-0.5182" y="-3" relative="1" as="geometry">
            <mxPoint y="-28" as="offset" />
          </mxGeometry>
        </mxCell>
        <mxCell id="p_basjyfW4By0MEy0A7S-30" value="cashdesk" style="rounded=0;whiteSpace=wrap;html=1;fillColor=#f8cecc;strokeColor=#b85450;" vertex="1" parent="1">
          <mxGeometry x="880" y="170" width="120" height="60" as="geometry" />
        </mxCell>
        <mxCell id="p_basjyfW4By0MEy0A7S-31" value="Use case GICC - Enrollment/Payment" style="text;html=1;strokeColor=none;fillColor=none;align=center;verticalAlign=middle;whiteSpace=wrap;rounded=0;" vertex="1" parent="1">
          <mxGeometry x="656" y="98" width="60" height="30" as="geometry" />
        </mxCell>
        <mxCell id="p_basjyfW4By0MEy0A7S-32" value="Use case REST - Enrollment/Payment" style="text;html=1;strokeColor=none;fillColor=none;align=center;verticalAlign=middle;whiteSpace=wrap;rounded=0;" vertex="1" parent="1">
          <mxGeometry x="953" y="98" width="60" height="30" as="geometry" />
        </mxCell>
        <mxCell id="p_basjyfW4By0MEy0A7S-33" value="&lt;div&gt;Transaction Engine&lt;/div&gt;" style="rounded=0;whiteSpace=wrap;html=1;fillColor=#fff2cc;strokeColor=#d6b656;" vertex="1" parent="1">
          <mxGeometry x="580" y="480" width="120" height="60" as="geometry" />
        </mxCell>
        <mxCell id="p_basjyfW4By0MEy0A7S-34" value="Storage Vault&lt;br&gt;(CDE)" style="rounded=0;whiteSpace=wrap;html=1;fillColor=#fff2cc;strokeColor=#d6b656;" vertex="1" parent="1">
          <mxGeometry x="440" y="480" width="120" height="60" as="geometry" />
        </mxCell>
        <mxCell id="p_basjyfW4By0MEy0A7S-35" value="wlp-sdk" style="rounded=0;whiteSpace=wrap;html=1;fillColor=#d5e8d4;strokeColor=#82b366;" vertex="1" parent="1">
          <mxGeometry x="-38" y="130" width="65" height="216" as="geometry" />
        </mxCell>
        <mxCell id="p_basjyfW4By0MEy0A7S-36" style="edgeStyle=orthogonalEdgeStyle;rounded=0;orthogonalLoop=1;jettySize=auto;html=1;exitX=0.75;exitY=0;exitDx=0;exitDy=0;entryX=0;entryY=0.25;entryDx=0;entryDy=0;strokeWidth=2;" edge="1" parent="1" source="p_basjyfW4By0MEy0A7S-35" target="p_basjyfW4By0MEy0A7S-35">
          <mxGeometry relative="1" as="geometry">
            <Array as="points">
              <mxPoint x="-123" y="88" />
              <mxPoint x="-123" y="184" />
            </Array>
          </mxGeometry>
        </mxCell>
        <mxCell id="p_basjyfW4By0MEy0A7S-37" value="&amp;nbsp;Calculate pub/sec key pair&amp;nbsp;" style="edgeLabel;html=1;align=center;verticalAlign=middle;resizable=0;points=[];" connectable="0" vertex="1" parent="p_basjyfW4By0MEy0A7S-36">
          <mxGeometry x="-0.4954" y="-1" relative="1" as="geometry">
            <mxPoint as="offset" />
          </mxGeometry>
        </mxCell>
        <mxCell id="p_basjyfW4By0MEy0A7S-38" value="" style="endArrow=classic;html=1;rounded=0;entryX=-0.008;entryY=0.105;entryDx=0;entryDy=0;entryPerimeter=0;strokeWidth=2;exitX=0.985;exitY=0.208;exitDx=0;exitDy=0;exitPerimeter=0;" edge="1" parent="1" source="p_basjyfW4By0MEy0A7S-35" target="p_basjyfW4By0MEy0A7S-4">
          <mxGeometry width="50" height="50" relative="1" as="geometry">
            <mxPoint x="62" y="176" as="sourcePoint" />
            <mxPoint x="94" y="75" as="targetPoint" />
          </mxGeometry>
        </mxCell>
        <mxCell id="p_basjyfW4By0MEy0A7S-39" value="&amp;nbsp;register pub_key&amp;nbsp;" style="edgeLabel;html=1;align=center;verticalAlign=middle;resizable=0;points=[];" connectable="0" vertex="1" parent="p_basjyfW4By0MEy0A7S-38">
          <mxGeometry x="-0.1207" relative="1" as="geometry">
            <mxPoint as="offset" />
          </mxGeometry>
        </mxCell>
        <mxCell id="p_basjyfW4By0MEy0A7S-40" style="edgeStyle=orthogonalEdgeStyle;rounded=0;orthogonalLoop=1;jettySize=auto;html=1;entryX=0.75;entryY=0;entryDx=0;entryDy=0;strokeWidth=2;" edge="1" parent="1" source="p_basjyfW4By0MEy0A7S-41" target="p_basjyfW4By0MEy0A7S-21">
          <mxGeometry relative="1" as="geometry" />
        </mxCell>
        <mxCell id="p_basjyfW4By0MEy0A7S-41" value="Host&lt;br&gt;(Poseidon)" style="rounded=0;whiteSpace=wrap;html=1;fillColor=#f8cecc;strokeColor=#b85450;" vertex="1" parent="1">
          <mxGeometry x="680" y="-8" width="120" height="60" as="geometry" />
        </mxCell>
        <mxCell id="p_basjyfW4By0MEy0A7S-42" value="WEB shop" style="rounded=1;whiteSpace=wrap;html=1;fillColor=#f8cecc;strokeColor=#b85450;" vertex="1" parent="1">
          <mxGeometry x="-60" y="-90" width="120" height="60" as="geometry" />
        </mxCell>
        <mxCell id="p_basjyfW4By0MEy0A7S-43" value="wlp--sdk-js" style="rounded=0;whiteSpace=wrap;html=1;fillColor=#d5e8d4;strokeColor=#82b366;" vertex="1" parent="1">
          <mxGeometry x="135.5" y="-90" width="120" height="60" as="geometry" />
        </mxCell>
        <mxCell id="p_basjyfW4By0MEy0A7S-44" value="" style="endArrow=classic;startArrow=classic;html=1;rounded=0;entryX=1;entryY=0.5;entryDx=0;entryDy=0;exitX=0;exitY=0.5;exitDx=0;exitDy=0;" edge="1" parent="1" source="p_basjyfW4By0MEy0A7S-43" target="p_basjyfW4By0MEy0A7S-42">
          <mxGeometry width="50" height="50" relative="1" as="geometry">
            <mxPoint x="405.5" y="240" as="sourcePoint" />
            <mxPoint x="455.5" y="190" as="targetPoint" />
          </mxGeometry>
        </mxCell>
        <mxCell id="p_basjyfW4By0MEy0A7S-46" value="" style="endArrow=classic;html=1;rounded=0;exitX=0.5;exitY=1;exitDx=0;exitDy=0;entryX=0.842;entryY=1.017;entryDx=0;entryDy=0;entryPerimeter=0;" edge="1" parent="1" source="p_basjyfW4By0MEy0A7S-35" target="p_basjyfW4By0MEy0A7S-18">
          <mxGeometry width="50" height="50" relative="1" as="geometry">
            <mxPoint x="400" y="430" as="sourcePoint" />
            <mxPoint x="450" y="380" as="targetPoint" />
            <Array as="points">
              <mxPoint x="-5" y="600" />
              <mxPoint x="781" y="600" />
            </Array>
          </mxGeometry>
        </mxCell>
        <mxCell id="p_basjyfW4By0MEy0A7S-52" style="edgeStyle=orthogonalEdgeStyle;rounded=0;orthogonalLoop=1;jettySize=auto;html=1;" edge="1" parent="1" source="p_basjyfW4By0MEy0A7S-48">
          <mxGeometry relative="1" as="geometry">
            <mxPoint x="725.5" y="-160" as="targetPoint" />
          </mxGeometry>
        </mxCell>
        <mxCell id="p_basjyfW4By0MEy0A7S-55" style="edgeStyle=orthogonalEdgeStyle;rounded=0;orthogonalLoop=1;jettySize=auto;html=1;" edge="1" parent="1" source="p_basjyfW4By0MEy0A7S-48" target="p_basjyfW4By0MEy0A7S-54">
          <mxGeometry relative="1" as="geometry">
            <Array as="points">
              <mxPoint x="565.5" y="-80" />
            </Array>
          </mxGeometry>
        </mxCell>
        <mxCell id="p_basjyfW4By0MEy0A7S-56" style="edgeStyle=orthogonalEdgeStyle;rounded=0;orthogonalLoop=1;jettySize=auto;html=1;entryX=1;entryY=0.5;entryDx=0;entryDy=0;" edge="1" parent="1" source="p_basjyfW4By0MEy0A7S-48" target="p_basjyfW4By0MEy0A7S-43">
          <mxGeometry relative="1" as="geometry" />
        </mxCell>
        <mxCell id="p_basjyfW4By0MEy0A7S-48" value="wlp-notengine" style="rounded=0;whiteSpace=wrap;html=1;fillColor=#dae8fc;strokeColor=#6c8ebf;" vertex="1" parent="1">
          <mxGeometry x="665.5" y="-90" width="120" height="60" as="geometry" />
        </mxCell>
        <mxCell id="p_basjyfW4By0MEy0A7S-50" style="edgeStyle=orthogonalEdgeStyle;rounded=0;orthogonalLoop=1;jettySize=auto;html=1;entryX=1;entryY=0.5;entryDx=0;entryDy=0;" edge="1" parent="1" source="p_basjyfW4By0MEy0A7S-49" target="p_basjyfW4By0MEy0A7S-48">
          <mxGeometry relative="1" as="geometry">
            <Array as="points">
              <mxPoint x="1139" y="-60" />
            </Array>
          </mxGeometry>
        </mxCell>
        <mxCell id="p_basjyfW4By0MEy0A7S-49" value="Pub/Sub" style="sketch=0;html=1;verticalAlign=top;labelPosition=center;verticalLabelPosition=bottom;align=center;spacingTop=-6;fontSize=11;fontStyle=1;fontColor=#999999;shape=image;aspect=fixed;imageAspect=0;image=data:image/svg+xml,PHN2ZyB4bWxucz0iaHR0cDovL3d3dy53My5vcmcvMjAwMC9zdmciIHhtbG5zOnY9Imh0dHBzOi8vdmVjdGEuaW8vbmFubyIgd2lkdGg9IjE4LjMxOTk5OTY5NDgyNDIyIiBoZWlnaHQ9IjIwLjAwMDAwMTkwNzM0ODYzMyIgdmlld0JveD0iMCAwIDE4LjMxOTk5OTY5NDgyNDIyIDIwLjAwMDAwMTkwNzM0ODYzMyI+JiN4YTsJPHN0eWxlIHR5cGU9InRleHQvY3NzIj4mI3hhOwkuc3Qwe2ZpbGw6IzY2OWRmNjt9JiN4YTsJLnN0MXtmaWxsOiM0Mjg1ZjQ7fSYjeGE7CS5zdDJ7ZmlsbDojYWVjYmZhO30mI3hhOwk8L3N0eWxlPiYjeGE7CTxkZWZzPiYjeGE7CQk8ZmlsdGVyIGlkPSJBIiB4PSI0LjY0IiB5PSI0LjE5IiB3aWR0aD0iMTQuNzMiIGhlaWdodD0iMTIuNzYiIGZpbHRlclVuaXRzPSJ1c2VyU3BhY2VPblVzZSIgY29sb3ItaW50ZXJwb2xhdGlvbi1maWx0ZXJzPSJzUkdCIj4mI3hhOwkJCTxmZUZsb29kIGZsb29kLWNvbG9yPSIjZmZmIi8+JiN4YTsJCQk8ZmVCbGVuZCBpbj0iU291cmNlR3JhcGhpYyIvPiYjeGE7CQk8L2ZpbHRlcj4mI3hhOwkJPG1hc2sgaWQ9IkIiIHg9IjQuNjQiIHk9IjQuMTkiIHdpZHRoPSIxNC43MyIgaGVpZ2h0PSIxMi43NiIgbWFza1VuaXRzPSJ1c2VyU3BhY2VPblVzZSI+JiN4YTsJCQk8Y2lyY2xlIGN4PSIxMiIgY3k9IjEyLjIzIiByPSIzLjU4IiBmaWx0ZXI9InVybCgjQSkiLz4mI3hhOwkJPC9tYXNrPiYjeGE7CTwvZGVmcz4mI3hhOwk8ZyBjbGFzcz0ic3QwIj4mI3hhOwkJPGNpcmNsZSBjeD0iMTYuMTMiIGN5PSI2LjIxIiByPSIxLjcyIi8+JiN4YTsJCTxjaXJjbGUgY3g9IjIuMTkiIGN5PSI2LjIxIiByPSIxLjcyIi8+JiN4YTsJCTxjaXJjbGUgY3g9IjkuMTYiIGN5PSIxOC4yOCIgcj0iMS43MiIvPiYjeGE7CTwvZz4mI3hhOwk8ZyBtYXNrPSJ1cmwoI0IpIiB0cmFuc2Zvcm09InRyYW5zbGF0ZSgtMi44NCAtMikiPiYjeGE7CQk8cGF0aCB0cmFuc2Zvcm09Im1hdHJpeCguNSAtLjg3IC44NyAuNSAtNC41OSAyMC41MykiIGQ9Ik0xNC42OSAxMC4yMmgxLjU5djguMDRoLTEuNTl6IiBjbGFzcz0ic3QxIi8+JiN4YTsJCTxwYXRoIHRyYW5zZm9ybT0icm90YXRlKDMzMCA4LjUyMyAxNC4yNDQpIiBkPSJNNC40OSAxMy40NWg4LjA0djEuNTlINC40OXoiIGNsYXNzPSJzdDEiLz4mI3hhOwkJPHBhdGggZD0iTTExLjIgNC4xOWgxLjU5djguMDRIMTEuMnoiIGNsYXNzPSJzdDEiLz4mI3hhOwk8L2c+JiN4YTsJPGcgY2xhc3M9InN0MiI+JiN4YTsJCTxjaXJjbGUgY3g9IjkuMTYiIGN5PSIxMC4yMyIgcj0iMi43OCIvPiYjeGE7CQk8Y2lyY2xlIGN4PSIyLjE5IiBjeT0iMTQuMjUiIHI9IjIuMTkiLz4mI3hhOwkJPGNpcmNsZSBjeD0iMTYuMTMiIGN5PSIxNC4yNSIgcj0iMi4xOSIvPiYjeGE7CQk8Y2lyY2xlIGN4PSI5LjE2IiBjeT0iMi4xOSIgcj0iMi4xOSIvPiYjeGE7CTwvZz4mI3hhOzwvc3ZnPg==;" vertex="1" parent="1">
          <mxGeometry x="1120" y="98" width="38" height="42" as="geometry" />
        </mxCell>
        <mxCell id="p_basjyfW4By0MEy0A7S-53" value="3th party webhook" style="rounded=0;whiteSpace=wrap;html=1;fillColor=#f8cecc;strokeColor=#b85450;" vertex="1" parent="1">
          <mxGeometry x="665.5" y="-220" width="120" height="60" as="geometry" />
        </mxCell>
        <mxCell id="p_basjyfW4By0MEy0A7S-54" value="wlp-default-not" style="rounded=0;whiteSpace=wrap;html=1;fillColor=#dae8fc;strokeColor=#6c8ebf;" vertex="1" parent="1">
          <mxGeometry x="505.5" y="-220" width="120" height="60" as="geometry" />
        </mxCell>
        <mxCell id="p_basjyfW4By0MEy0A7S-57" value="3th party app" style="rounded=1;whiteSpace=wrap;html=1;fillColor=#f8cecc;strokeColor=#b85450;" vertex="1" parent="1">
          <mxGeometry x="-220" y="230" width="120" height="60" as="geometry" />
        </mxCell>
        <mxCell id="p_basjyfW4By0MEy0A7S-58" value="" style="endArrow=classic;startArrow=classic;html=1;rounded=0;entryX=1;entryY=0.5;entryDx=0;entryDy=0;" edge="1" parent="1" target="p_basjyfW4By0MEy0A7S-57">
          <mxGeometry width="50" height="50" relative="1" as="geometry">
            <mxPoint x="-40" y="260" as="sourcePoint" />
            <mxPoint x="540" y="230" as="targetPoint" />
          </mxGeometry>
        </mxCell>
        <mxCell id="p_basjyfW4By0MEy0A7S-60" value="" style="shape=note;whiteSpace=wrap;html=1;backgroundOutline=1;fontColor=#000000;darkOpacity=0.05;fillColor=#FFF9B2;strokeColor=none;fillStyle=solid;direction=west;gradientDirection=north;gradientColor=#FFF2A1;shadow=1;size=20;pointerEvents=1;dashed=1;fontSize=400;" vertex="1" parent="1">
          <mxGeometry x="410" y="-60" width="140" height="160" as="geometry" />
        </mxCell>
      </root>
    </mxGraphModel>
  </diagram>
  <diagram id="SvoyVXbeMCzRkEwnJsFB" name="Page-5">
    <mxGraphModel grid="1" page="1" gridSize="10" guides="1" tooltips="1" connect="1" arrows="1" fold="1" pageScale="1" pageWidth="850" pageHeight="1100" math="0" shadow="0">
      <root>
        <mxCell id="0" />
        <mxCell id="1" parent="0" />
        <mxCell id="-LtvsJ4AnHa3ZohZVVDQ-1" value="" style="whiteSpace=wrap;html=1;aspect=fixed;dashed=1;fillColor=none;" vertex="1" parent="1">
          <mxGeometry x="627" y="83" width="197" height="197" as="geometry" />
        </mxCell>
        <mxCell id="-LtvsJ4AnHa3ZohZVVDQ-2" value="" style="whiteSpace=wrap;html=1;aspect=fixed;dashed=1;fillColor=none;" vertex="1" parent="1">
          <mxGeometry x="850" y="83" width="197" height="197" as="geometry" />
        </mxCell>
        <mxCell id="-LtvsJ4AnHa3ZohZVVDQ-3" style="edgeStyle=orthogonalEdgeStyle;rounded=0;orthogonalLoop=1;jettySize=auto;html=1;entryX=0.5;entryY=1;entryDx=0;entryDy=0;entryPerimeter=0;strokeWidth=2;" edge="1" parent="1" source="-LtvsJ4AnHa3ZohZVVDQ-4" target="-LtvsJ4AnHa3ZohZVVDQ-22">
          <mxGeometry relative="1" as="geometry" />
        </mxCell>
        <mxCell id="-LtvsJ4AnHa3ZohZVVDQ-4" value="wlp-identity" style="rounded=0;whiteSpace=wrap;html=1;fillColor=#A9C4EB;strokeColor=#7EA6E0;" vertex="1" parent="1">
          <mxGeometry x="240" y="170" width="120" height="60" as="geometry" />
        </mxCell>
        <mxCell id="-LtvsJ4AnHa3ZohZVVDQ-5" style="edgeStyle=orthogonalEdgeStyle;rounded=0;orthogonalLoop=1;jettySize=auto;html=1;entryX=0.5;entryY=0;entryDx=0;entryDy=0;entryPerimeter=0;strokeWidth=2;" edge="1" parent="1" source="-LtvsJ4AnHa3ZohZVVDQ-9" target="-LtvsJ4AnHa3ZohZVVDQ-23">
          <mxGeometry relative="1" as="geometry" />
        </mxCell>
        <mxCell id="-LtvsJ4AnHa3ZohZVVDQ-6" style="edgeStyle=orthogonalEdgeStyle;rounded=0;orthogonalLoop=1;jettySize=auto;html=1;entryX=0.5;entryY=1;entryDx=0;entryDy=0;strokeWidth=2;" edge="1" parent="1" source="-LtvsJ4AnHa3ZohZVVDQ-9" target="-LtvsJ4AnHa3ZohZVVDQ-4">
          <mxGeometry relative="1" as="geometry" />
        </mxCell>
        <mxCell id="-LtvsJ4AnHa3ZohZVVDQ-7" value="validate auth token" style="edgeLabel;html=1;align=center;verticalAlign=middle;resizable=0;points=[];" connectable="0" vertex="1" parent="-LtvsJ4AnHa3ZohZVVDQ-6">
          <mxGeometry x="-0.1714" y="3" relative="1" as="geometry">
            <mxPoint as="offset" />
          </mxGeometry>
        </mxCell>
        <mxCell id="-LtvsJ4AnHa3ZohZVVDQ-8" style="edgeStyle=orthogonalEdgeStyle;rounded=0;orthogonalLoop=1;jettySize=auto;html=1;entryX=0;entryY=0.5;entryDx=0;entryDy=0;" edge="1" parent="1" source="-LtvsJ4AnHa3ZohZVVDQ-9" target="-LtvsJ4AnHa3ZohZVVDQ-18">
          <mxGeometry relative="1" as="geometry" />
        </mxCell>
        <mxCell id="-LtvsJ4AnHa3ZohZVVDQ-9" value="wlp-registration" style="rounded=0;whiteSpace=wrap;html=1;fillColor=#A9C4EB;strokeColor=#7EA6E0;" vertex="1" parent="1">
          <mxGeometry x="240" y="300" width="120" height="60" as="geometry" />
        </mxCell>
        <mxCell id="-LtvsJ4AnHa3ZohZVVDQ-10" style="edgeStyle=orthogonalEdgeStyle;rounded=0;orthogonalLoop=1;jettySize=auto;html=1;strokeWidth=2;" edge="1" parent="1" source="-LtvsJ4AnHa3ZohZVVDQ-18" target="-LtvsJ4AnHa3ZohZVVDQ-9">
          <mxGeometry relative="1" as="geometry" />
        </mxCell>
        <mxCell id="-LtvsJ4AnHa3ZohZVVDQ-11" value="&amp;nbsp;create payment means&amp;nbsp;" style="edgeLabel;html=1;align=center;verticalAlign=middle;resizable=0;points=[];" connectable="0" vertex="1" parent="-LtvsJ4AnHa3ZohZVVDQ-10">
          <mxGeometry x="-0.0222" y="2" relative="1" as="geometry">
            <mxPoint as="offset" />
          </mxGeometry>
        </mxCell>
        <mxCell id="-LtvsJ4AnHa3ZohZVVDQ-12" style="edgeStyle=orthogonalEdgeStyle;rounded=0;orthogonalLoop=1;jettySize=auto;html=1;entryX=1;entryY=0.5;entryDx=0;entryDy=0;strokeWidth=2;" edge="1" parent="1" source="-LtvsJ4AnHa3ZohZVVDQ-18" target="-LtvsJ4AnHa3ZohZVVDQ-4">
          <mxGeometry relative="1" as="geometry">
            <Array as="points">
              <mxPoint x="490" y="310" />
              <mxPoint x="490" y="200" />
            </Array>
          </mxGeometry>
        </mxCell>
        <mxCell id="-LtvsJ4AnHa3ZohZVVDQ-13" value="validate enroll/payment token with pub_key" style="edgeLabel;html=1;align=center;verticalAlign=middle;resizable=0;points=[];" connectable="0" vertex="1" parent="-LtvsJ4AnHa3ZohZVVDQ-12">
          <mxGeometry x="0.1862" y="-3" relative="1" as="geometry">
            <mxPoint x="-3" y="15" as="offset" />
          </mxGeometry>
        </mxCell>
        <mxCell id="-LtvsJ4AnHa3ZohZVVDQ-14" style="edgeStyle=orthogonalEdgeStyle;rounded=0;orthogonalLoop=1;jettySize=auto;html=1;entryX=0.5;entryY=0;entryDx=0;entryDy=0;strokeWidth=2;" edge="1" parent="1" source="-LtvsJ4AnHa3ZohZVVDQ-18" target="-LtvsJ4AnHa3ZohZVVDQ-34">
          <mxGeometry relative="1" as="geometry">
            <Array as="points">
              <mxPoint x="730" y="410" />
              <mxPoint x="500" y="410" />
            </Array>
          </mxGeometry>
        </mxCell>
        <mxCell id="-LtvsJ4AnHa3ZohZVVDQ-15" value="&amp;nbsp;exchange reference id for card data&amp;nbsp;" style="edgeLabel;html=1;align=center;verticalAlign=middle;resizable=0;points=[];" connectable="0" vertex="1" parent="-LtvsJ4AnHa3ZohZVVDQ-14">
          <mxGeometry x="-0.2533" y="-1" relative="1" as="geometry">
            <mxPoint x="-29" as="offset" />
          </mxGeometry>
        </mxCell>
        <mxCell id="-LtvsJ4AnHa3ZohZVVDQ-16" style="edgeStyle=orthogonalEdgeStyle;rounded=0;orthogonalLoop=1;jettySize=auto;html=1;strokeWidth=2;" edge="1" parent="1" source="-LtvsJ4AnHa3ZohZVVDQ-18" target="-LtvsJ4AnHa3ZohZVVDQ-33">
          <mxGeometry relative="1" as="geometry">
            <Array as="points">
              <mxPoint x="760" y="440" />
              <mxPoint x="640" y="440" />
            </Array>
          </mxGeometry>
        </mxCell>
        <mxCell id="-LtvsJ4AnHa3ZohZVVDQ-17" value="&amp;nbsp;process payment&amp;nbsp;" style="edgeLabel;html=1;align=center;verticalAlign=middle;resizable=0;points=[];" connectable="0" vertex="1" parent="-LtvsJ4AnHa3ZohZVVDQ-16">
          <mxGeometry y="1" relative="1" as="geometry">
            <mxPoint x="-20" as="offset" />
          </mxGeometry>
        </mxCell>
        <mxCell id="-LtvsJ4AnHa3ZohZVVDQ-43" style="edgeStyle=orthogonalEdgeStyle;rounded=0;orthogonalLoop=1;jettySize=auto;html=1;entryX=0;entryY=0.5;entryDx=0;entryDy=0;strokeWidth=2;" edge="1" parent="1" source="-LtvsJ4AnHa3ZohZVVDQ-18" target="-LtvsJ4AnHa3ZohZVVDQ-42">
          <mxGeometry relative="1" as="geometry">
            <Array as="points">
              <mxPoint x="780" y="408" />
            </Array>
          </mxGeometry>
        </mxCell>
        <mxCell id="-LtvsJ4AnHa3ZohZVVDQ-44" value="send notification" style="edgeLabel;html=1;align=center;verticalAlign=middle;resizable=0;points=[];" connectable="0" vertex="1" parent="-LtvsJ4AnHa3ZohZVVDQ-43">
          <mxGeometry x="0.0669" y="1" relative="1" as="geometry">
            <mxPoint as="offset" />
          </mxGeometry>
        </mxCell>
        <mxCell id="-LtvsJ4AnHa3ZohZVVDQ-18" value="wlp-core" style="rounded=0;whiteSpace=wrap;html=1;fillColor=#A9C4EB;strokeColor=#7EA6E0;" vertex="1" parent="1">
          <mxGeometry x="680" y="300" width="120" height="60" as="geometry" />
        </mxCell>
        <mxCell id="-LtvsJ4AnHa3ZohZVVDQ-19" style="edgeStyle=orthogonalEdgeStyle;rounded=0;orthogonalLoop=1;jettySize=auto;html=1;strokeWidth=2;" edge="1" parent="1" source="-LtvsJ4AnHa3ZohZVVDQ-21" target="-LtvsJ4AnHa3ZohZVVDQ-18">
          <mxGeometry relative="1" as="geometry" />
        </mxCell>
        <mxCell id="-LtvsJ4AnHa3ZohZVVDQ-20" value="complete registration/payment" style="edgeLabel;html=1;align=center;verticalAlign=middle;resizable=0;points=[];" connectable="0" vertex="1" parent="-LtvsJ4AnHa3ZohZVVDQ-19">
          <mxGeometry x="0.0286" y="-2" relative="1" as="geometry">
            <mxPoint y="-6" as="offset" />
          </mxGeometry>
        </mxCell>
        <mxCell id="-LtvsJ4AnHa3ZohZVVDQ-21" value="wlp-gateway" style="rounded=0;whiteSpace=wrap;html=1;fillColor=#A9C4EB;strokeColor=#7EA6E0;" vertex="1" parent="1">
          <mxGeometry x="680" y="170" width="120" height="60" as="geometry" />
        </mxCell>
        <mxCell id="-LtvsJ4AnHa3ZohZVVDQ-22" value="device pub_key" style="shape=cylinder3;whiteSpace=wrap;html=1;boundedLbl=1;backgroundOutline=1;size=15;" vertex="1" parent="1">
          <mxGeometry x="270" y="31" width="60" height="80" as="geometry" />
        </mxCell>
        <mxCell id="-LtvsJ4AnHa3ZohZVVDQ-23" value="&lt;div&gt;subject,&lt;/div&gt;&lt;div&gt;&lt;br&gt;&lt;/div&gt;reference id&lt;br&gt;(&lt;span style=&quot;background-color: initial;&quot;&gt;payment means id),&lt;/span&gt;&lt;br&gt;&lt;div&gt;&lt;br&gt;&lt;/div&gt;&lt;div&gt;mandate,&lt;/div&gt;&lt;div&gt;&lt;br&gt;&lt;/div&gt;&lt;div&gt;enrollment/payment token&lt;/div&gt;&lt;br&gt;outlets&lt;br&gt;tenant_to_servicable_outlet" style="shape=cylinder3;whiteSpace=wrap;html=1;boundedLbl=1;backgroundOutline=1;size=15;" vertex="1" parent="1">
          <mxGeometry x="217" y="435.56" width="166" height="191" as="geometry" />
        </mxCell>
        <mxCell id="-LtvsJ4AnHa3ZohZVVDQ-24" value="" style="endArrow=classic;startArrow=classic;html=1;rounded=0;entryX=0;entryY=0.75;entryDx=0;entryDy=0;strokeWidth=2;exitX=0.999;exitY=0.393;exitDx=0;exitDy=0;exitPerimeter=0;" edge="1" parent="1" source="-LtvsJ4AnHa3ZohZVVDQ-35" target="-LtvsJ4AnHa3ZohZVVDQ-4">
          <mxGeometry width="50" height="50" relative="1" as="geometry">
            <mxPoint x="60" y="200" as="sourcePoint" />
            <mxPoint x="340" y="380" as="targetPoint" />
          </mxGeometry>
        </mxCell>
        <mxCell id="-LtvsJ4AnHa3ZohZVVDQ-25" value="&amp;nbsp;fetch auth token&amp;nbsp;" style="edgeLabel;html=1;align=center;verticalAlign=middle;resizable=0;points=[];" connectable="0" vertex="1" parent="-LtvsJ4AnHa3ZohZVVDQ-24">
          <mxGeometry y="-4" relative="1" as="geometry">
            <mxPoint as="offset" />
          </mxGeometry>
        </mxCell>
        <mxCell id="-LtvsJ4AnHa3ZohZVVDQ-26" value="" style="endArrow=classic;startArrow=classic;html=1;rounded=0;entryX=0;entryY=0.5;entryDx=0;entryDy=0;strokeWidth=2;exitX=0.994;exitY=0.929;exitDx=0;exitDy=0;exitPerimeter=0;" edge="1" parent="1" source="-LtvsJ4AnHa3ZohZVVDQ-35">
          <mxGeometry width="50" height="50" relative="1" as="geometry">
            <mxPoint x="60" y="330" as="sourcePoint" />
            <mxPoint x="240" y="330" as="targetPoint" />
          </mxGeometry>
        </mxCell>
        <mxCell id="-LtvsJ4AnHa3ZohZVVDQ-27" value="pass auth token&lt;br&gt;fetch enroll/payment token" style="edgeLabel;html=1;align=center;verticalAlign=middle;resizable=0;points=[];" connectable="0" vertex="1" parent="-LtvsJ4AnHa3ZohZVVDQ-26">
          <mxGeometry y="-4" relative="1" as="geometry">
            <mxPoint as="offset" />
          </mxGeometry>
        </mxCell>
        <mxCell id="-LtvsJ4AnHa3ZohZVVDQ-28" style="edgeStyle=orthogonalEdgeStyle;rounded=0;orthogonalLoop=1;jettySize=auto;html=1;entryX=1;entryY=0.5;entryDx=0;entryDy=0;strokeWidth=2;dashed=1;" edge="1" parent="1" source="-LtvsJ4AnHa3ZohZVVDQ-30" target="-LtvsJ4AnHa3ZohZVVDQ-18">
          <mxGeometry relative="1" as="geometry">
            <Array as="points">
              <mxPoint x="940" y="330" />
            </Array>
          </mxGeometry>
        </mxCell>
        <mxCell id="-LtvsJ4AnHa3ZohZVVDQ-29" value="complete registration/payment" style="edgeLabel;html=1;align=center;verticalAlign=middle;resizable=0;points=[];" connectable="0" vertex="1" parent="-LtvsJ4AnHa3ZohZVVDQ-28">
          <mxGeometry x="-0.5182" y="-3" relative="1" as="geometry">
            <mxPoint y="-28" as="offset" />
          </mxGeometry>
        </mxCell>
        <mxCell id="-LtvsJ4AnHa3ZohZVVDQ-30" value="cashdesk" style="rounded=0;whiteSpace=wrap;html=1;fillColor=#f8cecc;strokeColor=#b85450;" vertex="1" parent="1">
          <mxGeometry x="880" y="170" width="120" height="60" as="geometry" />
        </mxCell>
        <mxCell id="-LtvsJ4AnHa3ZohZVVDQ-31" value="Use case GICC - Enrollment/Payment" style="text;html=1;strokeColor=none;fillColor=none;align=center;verticalAlign=middle;whiteSpace=wrap;rounded=0;" vertex="1" parent="1">
          <mxGeometry x="656" y="98" width="60" height="30" as="geometry" />
        </mxCell>
        <mxCell id="-LtvsJ4AnHa3ZohZVVDQ-32" value="Use case REST - Enrollment/Payment" style="text;html=1;strokeColor=none;fillColor=none;align=center;verticalAlign=middle;whiteSpace=wrap;rounded=0;" vertex="1" parent="1">
          <mxGeometry x="953" y="98" width="60" height="30" as="geometry" />
        </mxCell>
        <mxCell id="-LtvsJ4AnHa3ZohZVVDQ-33" value="&lt;div&gt;Transaction Engine&lt;/div&gt;" style="rounded=0;whiteSpace=wrap;html=1;fillColor=#fff2cc;strokeColor=#d6b656;" vertex="1" parent="1">
          <mxGeometry x="580" y="480" width="120" height="60" as="geometry" />
        </mxCell>
        <mxCell id="-LtvsJ4AnHa3ZohZVVDQ-34" value="Storage Vault&lt;br&gt;(CDE)" style="rounded=0;whiteSpace=wrap;html=1;fillColor=#fff2cc;strokeColor=#d6b656;" vertex="1" parent="1">
          <mxGeometry x="440" y="480" width="120" height="60" as="geometry" />
        </mxCell>
        <mxCell id="-LtvsJ4AnHa3ZohZVVDQ-35" value="wlp-sdk" style="rounded=0;whiteSpace=wrap;html=1;fillColor=#d5e8d4;strokeColor=#82b366;" vertex="1" parent="1">
          <mxGeometry x="-38" y="130" width="65" height="216" as="geometry" />
        </mxCell>
        <mxCell id="-LtvsJ4AnHa3ZohZVVDQ-36" style="edgeStyle=orthogonalEdgeStyle;rounded=0;orthogonalLoop=1;jettySize=auto;html=1;exitX=0.75;exitY=0;exitDx=0;exitDy=0;entryX=0;entryY=0.25;entryDx=0;entryDy=0;strokeWidth=2;" edge="1" parent="1" source="-LtvsJ4AnHa3ZohZVVDQ-35" target="-LtvsJ4AnHa3ZohZVVDQ-35">
          <mxGeometry relative="1" as="geometry">
            <Array as="points">
              <mxPoint x="-123" y="88" />
              <mxPoint x="-123" y="184" />
            </Array>
          </mxGeometry>
        </mxCell>
        <mxCell id="-LtvsJ4AnHa3ZohZVVDQ-37" value="&amp;nbsp;Calculate pub/sec key pair&amp;nbsp;" style="edgeLabel;html=1;align=center;verticalAlign=middle;resizable=0;points=[];" connectable="0" vertex="1" parent="-LtvsJ4AnHa3ZohZVVDQ-36">
          <mxGeometry x="-0.4954" y="-1" relative="1" as="geometry">
            <mxPoint as="offset" />
          </mxGeometry>
        </mxCell>
        <mxCell id="-LtvsJ4AnHa3ZohZVVDQ-38" value="" style="endArrow=classic;html=1;rounded=0;entryX=-0.008;entryY=0.105;entryDx=0;entryDy=0;entryPerimeter=0;strokeWidth=2;exitX=0.985;exitY=0.208;exitDx=0;exitDy=0;exitPerimeter=0;" edge="1" parent="1" source="-LtvsJ4AnHa3ZohZVVDQ-35" target="-LtvsJ4AnHa3ZohZVVDQ-4">
          <mxGeometry width="50" height="50" relative="1" as="geometry">
            <mxPoint x="62" y="176" as="sourcePoint" />
            <mxPoint x="94" y="75" as="targetPoint" />
          </mxGeometry>
        </mxCell>
        <mxCell id="-LtvsJ4AnHa3ZohZVVDQ-39" value="&amp;nbsp;register pub_key&amp;nbsp;" style="edgeLabel;html=1;align=center;verticalAlign=middle;resizable=0;points=[];" connectable="0" vertex="1" parent="-LtvsJ4AnHa3ZohZVVDQ-38">
          <mxGeometry x="-0.1207" relative="1" as="geometry">
            <mxPoint as="offset" />
          </mxGeometry>
        </mxCell>
        <mxCell id="-LtvsJ4AnHa3ZohZVVDQ-40" style="edgeStyle=orthogonalEdgeStyle;rounded=0;orthogonalLoop=1;jettySize=auto;html=1;entryX=0.75;entryY=0;entryDx=0;entryDy=0;strokeWidth=2;" edge="1" parent="1" source="-LtvsJ4AnHa3ZohZVVDQ-41" target="-LtvsJ4AnHa3ZohZVVDQ-21">
          <mxGeometry relative="1" as="geometry" />
        </mxCell>
        <mxCell id="-LtvsJ4AnHa3ZohZVVDQ-41" value="Host&lt;br&gt;(Poseidon)" style="rounded=0;whiteSpace=wrap;html=1;fillColor=#f8cecc;strokeColor=#b85450;" vertex="1" parent="1">
          <mxGeometry x="680" y="-8" width="120" height="60" as="geometry" />
        </mxCell>
        <mxCell id="-LtvsJ4AnHa3ZohZVVDQ-42" value="" style="editableCssRules=.*;shape=image;verticalLabelPosition=bottom;labelBackgroundColor=#ffffff;verticalAlign=top;aspect=fixed;imageAspect=0;image=data:image/svg+xml,PHN2ZyB4bWxucz0iaHR0cDovL3d3dy53My5vcmcvMjAwMC9zdmciIHhtbG5zOnY9Imh0dHBzOi8vdmVjdGEuaW8vbmFubyIgd2lkdGg9IjE4LjMxOTk5OTY5NDgyNDIyIiBoZWlnaHQ9IjIwLjAwMDAwMTkwNzM0ODYzMyIgdmlld0JveD0iMCAwIDE4LjMxOTk5OTY5NDgyNDIyIDIwLjAwMDAwMTkwNzM0ODYzMyI+JiN4YTsJPHN0eWxlIHR5cGU9InRleHQvY3NzIj4mI3hhOwkuc3Qwe2ZpbGw6IzY2OWRmNjt9JiN4YTsJLnN0MXtmaWxsOiM0Mjg1ZjQ7fSYjeGE7CS5zdDJ7ZmlsbDojYWVjYmZhO30mI3hhOwk8L3N0eWxlPiYjeGE7CTxkZWZzPiYjeGE7CQk8ZmlsdGVyIGlkPSJBIiB4PSI0LjY0IiB5PSI0LjE5IiB3aWR0aD0iMTQuNzMiIGhlaWdodD0iMTIuNzYiIGZpbHRlclVuaXRzPSJ1c2VyU3BhY2VPblVzZSIgY29sb3ItaW50ZXJwb2xhdGlvbi1maWx0ZXJzPSJzUkdCIj4mI3hhOwkJCTxmZUZsb29kIGZsb29kLWNvbG9yPSIjZmZmIi8+JiN4YTsJCQk8ZmVCbGVuZCBpbj0iU291cmNlR3JhcGhpYyIvPiYjeGE7CQk8L2ZpbHRlcj4mI3hhOwkJPG1hc2sgaWQ9IkIiIHg9IjQuNjQiIHk9IjQuMTkiIHdpZHRoPSIxNC43MyIgaGVpZ2h0PSIxMi43NiIgbWFza1VuaXRzPSJ1c2VyU3BhY2VPblVzZSI+JiN4YTsJCQk8Y2lyY2xlIGN4PSIxMiIgY3k9IjEyLjIzIiByPSIzLjU4IiBmaWx0ZXI9InVybCgjQSkiLz4mI3hhOwkJPC9tYXNrPiYjeGE7CTwvZGVmcz4mI3hhOwk8ZyBjbGFzcz0ic3QwIj4mI3hhOwkJPGNpcmNsZSBjeD0iMTYuMTMiIGN5PSI2LjIxIiByPSIxLjcyIi8+JiN4YTsJCTxjaXJjbGUgY3g9IjIuMTkiIGN5PSI2LjIxIiByPSIxLjcyIi8+JiN4YTsJCTxjaXJjbGUgY3g9IjkuMTYiIGN5PSIxOC4yOCIgcj0iMS43MiIvPiYjeGE7CTwvZz4mI3hhOwk8ZyBtYXNrPSJ1cmwoI0IpIiB0cmFuc2Zvcm09InRyYW5zbGF0ZSgtMi44NCAtMikiPiYjeGE7CQk8cGF0aCB0cmFuc2Zvcm09Im1hdHJpeCguNSAtLjg3IC44NyAuNSAtNC41OSAyMC41MykiIGQ9Ik0xNC42OSAxMC4yMmgxLjU5djguMDRoLTEuNTl6IiBjbGFzcz0ic3QxIi8+JiN4YTsJCTxwYXRoIHRyYW5zZm9ybT0icm90YXRlKDMzMCA4LjUyMyAxNC4yNDQpIiBkPSJNNC40OSAxMy40NWg4LjA0djEuNTlINC40OXoiIGNsYXNzPSJzdDEiLz4mI3hhOwkJPHBhdGggZD0iTTExLjIgNC4xOWgxLjU5djguMDRIMTEuMnoiIGNsYXNzPSJzdDEiLz4mI3hhOwk8L2c+JiN4YTsJPGcgY2xhc3M9InN0MiI+JiN4YTsJCTxjaXJjbGUgY3g9IjkuMTYiIGN5PSIxMC4yMyIgcj0iMi43OCIvPiYjeGE7CQk8Y2lyY2xlIGN4PSIyLjE5IiBjeT0iMTQuMjUiIHI9IjIuMTkiLz4mI3hhOwkJPGNpcmNsZSBjeD0iMTYuMTMiIGN5PSIxNC4yNSIgcj0iMi4xOSIvPiYjeGE7CQk8Y2lyY2xlIGN4PSI5LjE2IiBjeT0iMi4xOSIgcj0iMi4xOSIvPiYjeGE7CTwvZz4mI3hhOzwvc3ZnPg==;" vertex="1" parent="1">
          <mxGeometry x="915" y="380" width="50" height="55.56" as="geometry" />
        </mxCell>
        <mxCell id="-LtvsJ4AnHa3ZohZVVDQ-46" style="edgeStyle=orthogonalEdgeStyle;rounded=0;orthogonalLoop=1;jettySize=auto;html=1;strokeWidth=2;" edge="1" parent="1" source="-LtvsJ4AnHa3ZohZVVDQ-45" target="-LtvsJ4AnHa3ZohZVVDQ-42">
          <mxGeometry relative="1" as="geometry" />
        </mxCell>
        <mxCell id="-LtvsJ4AnHa3ZohZVVDQ-47" value="process" style="edgeLabel;html=1;align=center;verticalAlign=middle;resizable=0;points=[];" connectable="0" vertex="1" parent="-LtvsJ4AnHa3ZohZVVDQ-46">
          <mxGeometry x="0.1648" y="1" relative="1" as="geometry">
            <mxPoint as="offset" />
          </mxGeometry>
        </mxCell>
        <mxCell id="-LtvsJ4AnHa3ZohZVVDQ-61" style="edgeStyle=orthogonalEdgeStyle;rounded=0;orthogonalLoop=1;jettySize=auto;html=1;entryX=0.5;entryY=1;entryDx=0;entryDy=0;entryPerimeter=0;strokeWidth=2;" edge="1" parent="1" source="-LtvsJ4AnHa3ZohZVVDQ-45" target="-LtvsJ4AnHa3ZohZVVDQ-59">
          <mxGeometry relative="1" as="geometry" />
        </mxCell>
        <mxCell id="-LtvsJ4AnHa3ZohZVVDQ-45" value="wlp-notservice" style="rounded=0;whiteSpace=wrap;html=1;fillColor=#A9C4EB;strokeColor=#7EA6E0;" vertex="1" parent="1">
          <mxGeometry x="1090" y="319.99999999999994" width="120" height="60" as="geometry" />
        </mxCell>
        <mxCell id="-LtvsJ4AnHa3ZohZVVDQ-48" value="" style="editableCssRules=.*;shape=image;verticalLabelPosition=bottom;labelBackgroundColor=#ffffff;verticalAlign=top;aspect=fixed;imageAspect=0;image=data:image/svg+xml,PHN2ZyB4bWxucz0iaHR0cDovL3d3dy53My5vcmcvMjAwMC9zdmciIHhtbG5zOnY9Imh0dHBzOi8vdmVjdGEuaW8vbmFubyIgd2lkdGg9IjE4LjMxOTk5OTY5NDgyNDIyIiBoZWlnaHQ9IjIwLjAwMDAwMTkwNzM0ODYzMyIgdmlld0JveD0iMCAwIDE4LjMxOTk5OTY5NDgyNDIyIDIwLjAwMDAwMTkwNzM0ODYzMyI+JiN4YTsJPHN0eWxlIHR5cGU9InRleHQvY3NzIj4mI3hhOwkuc3Qwe2ZpbGw6IzY2OWRmNjt9JiN4YTsJLnN0MXtmaWxsOiM0Mjg1ZjQ7fSYjeGE7CS5zdDJ7ZmlsbDojYWVjYmZhO30mI3hhOwk8L3N0eWxlPiYjeGE7CTxkZWZzPiYjeGE7CQk8ZmlsdGVyIGlkPSJBIiB4PSI0LjY0IiB5PSI0LjE5IiB3aWR0aD0iMTQuNzMiIGhlaWdodD0iMTIuNzYiIGZpbHRlclVuaXRzPSJ1c2VyU3BhY2VPblVzZSIgY29sb3ItaW50ZXJwb2xhdGlvbi1maWx0ZXJzPSJzUkdCIj4mI3hhOwkJCTxmZUZsb29kIGZsb29kLWNvbG9yPSIjZmZmIi8+JiN4YTsJCQk8ZmVCbGVuZCBpbj0iU291cmNlR3JhcGhpYyIvPiYjeGE7CQk8L2ZpbHRlcj4mI3hhOwkJPG1hc2sgaWQ9IkIiIHg9IjQuNjQiIHk9IjQuMTkiIHdpZHRoPSIxNC43MyIgaGVpZ2h0PSIxMi43NiIgbWFza1VuaXRzPSJ1c2VyU3BhY2VPblVzZSI+JiN4YTsJCQk8Y2lyY2xlIGN4PSIxMiIgY3k9IjEyLjIzIiByPSIzLjU4IiBmaWx0ZXI9InVybCgjQSkiLz4mI3hhOwkJPC9tYXNrPiYjeGE7CTwvZGVmcz4mI3hhOwk8ZyBjbGFzcz0ic3QwIj4mI3hhOwkJPGNpcmNsZSBjeD0iMTYuMTMiIGN5PSI2LjIxIiByPSIxLjcyIi8+JiN4YTsJCTxjaXJjbGUgY3g9IjIuMTkiIGN5PSI2LjIxIiByPSIxLjcyIi8+JiN4YTsJCTxjaXJjbGUgY3g9IjkuMTYiIGN5PSIxOC4yOCIgcj0iMS43MiIvPiYjeGE7CTwvZz4mI3hhOwk8ZyBtYXNrPSJ1cmwoI0IpIiB0cmFuc2Zvcm09InRyYW5zbGF0ZSgtMi44NCAtMikiPiYjeGE7CQk8cGF0aCB0cmFuc2Zvcm09Im1hdHJpeCguNSAtLjg3IC44NyAuNSAtNC41OSAyMC41MykiIGQ9Ik0xNC42OSAxMC4yMmgxLjU5djguMDRoLTEuNTl6IiBjbGFzcz0ic3QxIi8+JiN4YTsJCTxwYXRoIHRyYW5zZm9ybT0icm90YXRlKDMzMCA4LjUyMyAxNC4yNDQpIiBkPSJNNC40OSAxMy40NWg4LjA0djEuNTlINC40OXoiIGNsYXNzPSJzdDEiLz4mI3hhOwkJPHBhdGggZD0iTTExLjIgNC4xOWgxLjU5djguMDRIMTEuMnoiIGNsYXNzPSJzdDEiLz4mI3hhOwk8L2c+JiN4YTsJPGcgY2xhc3M9InN0MiI+JiN4YTsJCTxjaXJjbGUgY3g9IjkuMTYiIGN5PSIxMC4yMyIgcj0iMi43OCIvPiYjeGE7CQk8Y2lyY2xlIGN4PSIyLjE5IiBjeT0iMTQuMjUiIHI9IjIuMTkiLz4mI3hhOwkJPGNpcmNsZSBjeD0iMTYuMTMiIGN5PSIxNC4yNSIgcj0iMi4xOSIvPiYjeGE7CQk8Y2lyY2xlIGN4PSI5LjE2IiBjeT0iMi4xOSIgcj0iMi4xOSIvPiYjeGE7CTwvZz4mI3hhOzwvc3ZnPg==;" vertex="1" parent="1">
          <mxGeometry x="530" y="-67.78" width="50" height="55.56" as="geometry" />
        </mxCell>
        <mxCell id="-LtvsJ4AnHa3ZohZVVDQ-50" value="tenant master data" style="edgeStyle=orthogonalEdgeStyle;rounded=0;orthogonalLoop=1;jettySize=auto;html=1;strokeWidth=2;exitX=0;exitY=0.5;exitDx=0;exitDy=0;" edge="1" parent="1" source="-LtvsJ4AnHa3ZohZVVDQ-49">
          <mxGeometry relative="1" as="geometry">
            <mxPoint x="580" y="-42" as="targetPoint" />
            <Array as="points">
              <mxPoint x="600" y="-42" />
              <mxPoint x="600" y="-40" />
              <mxPoint x="590" y="-40" />
              <mxPoint x="590" y="-42" />
            </Array>
          </mxGeometry>
        </mxCell>
        <mxCell id="-LtvsJ4AnHa3ZohZVVDQ-49" value="MC" style="rounded=0;whiteSpace=wrap;html=1;fillColor=#f8cecc;strokeColor=#b85450;" vertex="1" parent="1">
          <mxGeometry x="845" y="-72.22" width="120" height="60" as="geometry" />
        </mxCell>
        <mxCell id="-LtvsJ4AnHa3ZohZVVDQ-52" value="&lt;div&gt;maintain tenant list&lt;/div&gt;" style="edgeStyle=orthogonalEdgeStyle;rounded=0;orthogonalLoop=1;jettySize=auto;html=1;entryX=0;entryY=0.5;entryDx=0;entryDy=0;strokeWidth=2;" edge="1" parent="1" source="-LtvsJ4AnHa3ZohZVVDQ-51" target="-LtvsJ4AnHa3ZohZVVDQ-48">
          <mxGeometry relative="1" as="geometry" />
        </mxCell>
        <mxCell id="-LtvsJ4AnHa3ZohZVVDQ-54" style="edgeStyle=orthogonalEdgeStyle;rounded=0;orthogonalLoop=1;jettySize=auto;html=1;entryX=0.5;entryY=1;entryDx=0;entryDy=0;entryPerimeter=0;strokeWidth=2;" edge="1" parent="1" source="-LtvsJ4AnHa3ZohZVVDQ-51" target="-LtvsJ4AnHa3ZohZVVDQ-53">
          <mxGeometry relative="1" as="geometry" />
        </mxCell>
        <mxCell id="-LtvsJ4AnHa3ZohZVVDQ-51" value="wlp-tenant (?)" style="rounded=0;whiteSpace=wrap;html=1;fillColor=#A9C4EB;strokeColor=#7EA6E0;" vertex="1" parent="1">
          <mxGeometry x="240" y="-70.00000000000006" width="120" height="60" as="geometry" />
        </mxCell>
        <mxCell id="-LtvsJ4AnHa3ZohZVVDQ-55" style="edgeStyle=orthogonalEdgeStyle;rounded=0;orthogonalLoop=1;jettySize=auto;html=1;strokeWidth=2;" edge="1" parent="1" source="-LtvsJ4AnHa3ZohZVVDQ-53" target="-LtvsJ4AnHa3ZohZVVDQ-22">
          <mxGeometry relative="1" as="geometry">
            <Array as="points">
              <mxPoint x="90" y="-180" />
              <mxPoint x="90" y="71" />
            </Array>
          </mxGeometry>
        </mxCell>
        <mxCell id="-LtvsJ4AnHa3ZohZVVDQ-56" value="replicates tenant list" style="edgeLabel;html=1;align=center;verticalAlign=middle;resizable=0;points=[];" connectable="0" vertex="1" parent="-LtvsJ4AnHa3ZohZVVDQ-55">
          <mxGeometry x="0.0388" y="-3" relative="1" as="geometry">
            <mxPoint as="offset" />
          </mxGeometry>
        </mxCell>
        <mxCell id="-LtvsJ4AnHa3ZohZVVDQ-57" style="edgeStyle=orthogonalEdgeStyle;rounded=0;orthogonalLoop=1;jettySize=auto;html=1;strokeWidth=2;" edge="1" parent="1" source="-LtvsJ4AnHa3ZohZVVDQ-53">
          <mxGeometry relative="1" as="geometry">
            <mxPoint x="230" y="530" as="targetPoint" />
            <Array as="points">
              <mxPoint x="-140" y="-180" />
              <mxPoint x="-140" y="528" />
              <mxPoint x="225" y="528" />
            </Array>
          </mxGeometry>
        </mxCell>
        <mxCell id="-LtvsJ4AnHa3ZohZVVDQ-58" value="replicates tenant list" style="edgeLabel;html=1;align=center;verticalAlign=middle;resizable=0;points=[];" connectable="0" vertex="1" parent="-LtvsJ4AnHa3ZohZVVDQ-57">
          <mxGeometry x="0.2654" y="-2" relative="1" as="geometry">
            <mxPoint as="offset" />
          </mxGeometry>
        </mxCell>
        <mxCell id="-LtvsJ4AnHa3ZohZVVDQ-62" style="edgeStyle=orthogonalEdgeStyle;rounded=0;orthogonalLoop=1;jettySize=auto;html=1;strokeWidth=2;" edge="1" parent="1" source="-LtvsJ4AnHa3ZohZVVDQ-53" target="-LtvsJ4AnHa3ZohZVVDQ-59">
          <mxGeometry relative="1" as="geometry" />
        </mxCell>
        <mxCell id="-LtvsJ4AnHa3ZohZVVDQ-63" value="replicates tenant list" style="edgeLabel;html=1;align=center;verticalAlign=middle;resizable=0;points=[];" connectable="0" vertex="1" parent="-LtvsJ4AnHa3ZohZVVDQ-62">
          <mxGeometry x="-0.4548" y="4" relative="1" as="geometry">
            <mxPoint as="offset" />
          </mxGeometry>
        </mxCell>
        <mxCell id="-LtvsJ4AnHa3ZohZVVDQ-53" value="&lt;div&gt;tenants, &lt;br&gt;&lt;/div&gt;&lt;div&gt;outlet operators, configuration&lt;/div&gt;" style="shape=cylinder3;whiteSpace=wrap;html=1;boundedLbl=1;backgroundOutline=1;size=15;" vertex="1" parent="1">
          <mxGeometry x="250" y="-240" width="100" height="120" as="geometry" />
        </mxCell>
        <mxCell id="-LtvsJ4AnHa3ZohZVVDQ-59" value="connectors" style="shape=cylinder3;whiteSpace=wrap;html=1;boundedLbl=1;backgroundOutline=1;size=15;" vertex="1" parent="1">
          <mxGeometry x="1110" y="198" width="80" height="62" as="geometry" />
        </mxCell>
        <mxCell id="-LtvsJ4AnHa3ZohZVVDQ-66" value="register outlet,&lt;br&gt;&lt;div&gt;request outlet servicing&lt;/div&gt;" style="edgeStyle=orthogonalEdgeStyle;rounded=0;orthogonalLoop=1;jettySize=auto;html=1;strokeWidth=2;" edge="1" parent="1" source="-LtvsJ4AnHa3ZohZVVDQ-65" target="-LtvsJ4AnHa3ZohZVVDQ-9">
          <mxGeometry relative="1" as="geometry">
            <Array as="points">
              <mxPoint x="20" y="400" />
              <mxPoint x="260" y="400" />
            </Array>
          </mxGeometry>
        </mxCell>
        <mxCell id="-LtvsJ4AnHa3ZohZVVDQ-65" value="outlet UI" style="rounded=0;whiteSpace=wrap;html=1;fillColor=#d5e8d4;strokeColor=#82b366;" vertex="1" parent="1">
          <mxGeometry x="-110" y="440" width="260" height="50" as="geometry" />
        </mxCell>
        <mxCell id="ydB1k7_eYNV6NhxU-vdL-2" style="edgeStyle=orthogonalEdgeStyle;rounded=0;orthogonalLoop=1;jettySize=auto;html=1;entryX=1;entryY=0.25;entryDx=0;entryDy=0;" edge="1" parent="1" source="ydB1k7_eYNV6NhxU-vdL-1" target="-LtvsJ4AnHa3ZohZVVDQ-51">
          <mxGeometry relative="1" as="geometry" />
        </mxCell>
        <mxCell id="ydB1k7_eYNV6NhxU-vdL-1" value="backoffice / tenant ui" style="rounded=0;whiteSpace=wrap;html=1;fillColor=#d5e8d4;strokeColor=#82b366;" vertex="1" parent="1">
          <mxGeometry x="440" y="-160" width="260" height="50" as="geometry" />
        </mxCell>
      </root>
    </mxGraphModel>
  </diagram>
</mxfile>
